<svg width="218" height="90" viewBox="0 0 218 90" fill="none" xmlns="http://www.w3.org/2000/svg">
<path d="M216.113 29.5574V38.2809C216.113 39.0781 215.722 39.8296 215.061 40.2815L212.995 41.7032L211.928 42.4344L210.542 43.389C210.324 43.5414 210.09 43.648 209.852 43.7191C209.725 43.7597 209.593 43.7851 209.461 43.8003C208.196 43.9527 206.922 43.0793 206.754 41.6779L205.327 29.8265L205.282 29.4304L205.114 28.0544L204.952 26.7037C204.952 26.6834 204.947 26.6631 204.947 26.6478C204.764 24.7589 206.734 23.3879 208.445 24.241L210.756 25.3886L211.857 25.9369L214.767 27.3841C215.59 27.7954 216.113 28.6383 216.113 29.5574Z" fill="#C7C7C7"/>
<path opacity="0.35" d="M212.99 41.7032L211.923 42.4344L210.537 43.389C210.319 43.5414 210.085 43.648 209.847 43.7191C209.72 43.7597 209.588 43.7851 209.456 43.8003C208.191 43.9527 206.917 43.0793 206.749 41.6779L205.322 29.8265L205.277 29.4304L205.109 28.0544L204.947 26.7037C204.947 26.6834 204.942 26.6631 204.942 26.6478C204.759 24.7589 206.729 23.3879 208.44 24.241L210.75 25.3886L211.852 25.9369L212.99 41.7032Z" fill="#3D423E"/>
<path d="M199.229 79.1158L194.725 77.7448L176.522 79.1158L175.983 60.4857C175.983 60.4857 176.699 56.6571 177.156 56.6571C177.613 56.6571 190.399 56.129 190.399 56.129L202.702 58.2413L206.267 66.1626L206.135 72.0324L199.229 79.1158Z" fill="black"/>
<path d="M189.449 14.4004C189.449 14.4004 178.568 7.56583 162.517 7.56583V62.0649H169.824L189.449 14.4004Z" fill="#272A28"/>
<path d="M210.842 26.6478H169.824V17.9243C169.824 15.9796 171.403 14.4004 173.348 14.4004H200.443C205.82 14.4004 210.283 18.5641 210.654 23.9313L210.755 25.3886L210.842 26.6478Z" fill="#C7C7C7"/>
<path d="M214.442 79.1158H199.229C199.229 72.8449 194.146 67.7621 187.875 67.7621C181.604 67.7621 176.521 72.8449 176.521 79.1158H161.309V62.0699H169.829V26.6478H210.847L210.943 28.0544L211.928 42.4395L212.461 50.1881L214.442 79.1158Z" fill="#C7C7C7"/>
<path opacity="0.36" d="M216.112 29.5574V38.2809C216.112 39.0781 215.721 39.8296 215.061 40.2815L212.995 41.7033L211.928 42.4344L212.462 50.183C211.766 50.1983 211.075 50.2033 210.4 50.2033C210.268 50.2033 210.136 50.2033 210.004 50.2033C201.864 50.183 195.223 49.2335 189.8 47.695C189.663 47.6543 189.531 47.6188 189.394 47.5782C178.928 44.5163 173.089 39.2253 169.829 34.2035V17.9243C169.829 15.9796 171.408 14.4004 173.353 14.4004H200.448C205.825 14.4004 210.288 18.5641 210.659 23.9313L210.761 25.3886L211.862 25.937L214.772 27.3841C215.589 27.7954 216.112 28.6383 216.112 29.5574Z" fill="white"/>
<path d="M23.6368 69.5393L18.9348 76.6074V81.6953H21.2858V76.7902L26.1807 69.8135L23.6368 69.5393Z" fill="#161616"/>
<path d="M115.924 75.8052H112.065C111.857 75.8052 111.694 75.9727 111.694 76.1758C111.694 76.384 111.862 76.5465 112.065 76.5465H115.924C116.132 76.5465 116.295 76.379 116.295 76.1758C116.295 75.9727 116.127 75.8052 115.924 75.8052Z" fill="#1E4C2B"/>
<path d="M138.261 75.8052H134.402C134.194 75.8052 134.031 75.9727 134.031 76.1758C134.031 76.384 134.199 76.5465 134.402 76.5465H138.261C138.469 76.5465 138.632 76.379 138.632 76.1758C138.632 75.9727 138.464 75.8052 138.261 75.8052Z" fill="#1E4C2B"/>
<path opacity="0.37" d="M115.924 75.8052H112.065C111.882 75.8052 111.73 75.9372 111.699 76.1098H116.295C116.259 75.9372 116.107 75.8052 115.924 75.8052Z" fill="black"/>
<path opacity="0.37" d="M138.261 75.8052H134.402C134.219 75.8052 134.067 75.9372 134.036 76.1098H138.632C138.596 75.9372 138.444 75.8052 138.261 75.8052Z" fill="black"/>
<path d="M187.149 69.7779C181.772 69.7779 177.41 74.1397 177.41 79.517C177.41 84.8943 181.772 89.256 187.149 89.256C192.527 89.256 196.888 84.8943 196.888 79.517C196.883 74.1397 192.527 69.7779 187.149 69.7779ZM187.149 86.9304C183.057 86.9304 179.736 83.6096 179.736 79.517C179.736 75.4243 183.057 72.1035 187.149 72.1035C191.242 72.1035 194.563 75.4243 194.563 79.517C194.558 83.6096 191.242 86.9304 187.149 86.9304Z" fill="#232323"/>
<path d="M187.149 71.7583C182.864 71.7583 179.391 75.2314 179.391 79.517C179.391 83.8026 182.864 87.2758 187.149 87.2758C191.435 87.2758 194.908 83.8026 194.908 79.517C194.903 75.2314 191.43 71.7583 187.149 71.7583ZM187.149 85.4224C183.889 85.4224 181.244 82.7769 181.244 79.517C181.244 76.2571 183.889 73.6116 187.149 73.6116C190.409 73.6116 193.055 76.2571 193.055 79.517C193.05 82.7769 190.409 85.4224 187.149 85.4224Z" fill="url(#paint0_radial_19625_395)"/>
<path d="M187.149 72.7281C183.402 72.7281 180.36 75.7646 180.36 79.517C180.36 83.2644 183.397 86.3059 187.149 86.3059C190.902 86.3059 193.938 83.2694 193.938 79.517C193.933 75.7697 190.897 72.7281 187.149 72.7281ZM187.149 85.133C184.047 85.133 181.533 82.6195 181.533 79.517C181.533 76.4145 184.047 73.9011 187.149 73.9011C190.252 73.9011 192.765 76.4145 192.765 79.517C192.765 82.6195 190.247 85.133 187.149 85.133Z" fill="url(#paint1_radial_19625_395)"/>
<path d="M187.149 72.7281C183.402 72.7281 180.36 75.7646 180.36 79.517C180.36 83.2644 183.397 86.3059 187.149 86.3059C190.902 86.3059 193.938 83.2694 193.938 79.517C193.933 75.7697 190.897 72.7281 187.149 72.7281ZM187.149 85.8489C183.651 85.8489 180.817 83.0156 180.817 79.517C180.817 76.0185 183.651 73.1851 187.149 73.1851C190.648 73.1851 193.481 76.0185 193.481 79.517C193.476 83.0156 190.643 85.8489 187.149 85.8489Z" fill="#919191"/>
<path d="M187.159 70.2908L187.494 69.7881C187.378 69.783 187.266 69.7831 187.149 69.7831C186.875 69.7831 186.606 69.7932 186.342 69.8186L186.017 70.3264L187.159 70.2908Z" fill="#090604"/>
<path d="M187.007 88.8752L186.769 89.251C186.895 89.2561 187.017 89.2561 187.144 89.2561C187.413 89.2561 187.677 89.2459 187.936 89.2256L188.216 88.8041L187.007 88.8752Z" fill="#090604"/>
<path d="M196.375 79.5272L196.878 79.8623C196.883 79.7455 196.883 79.6338 196.883 79.517C196.883 79.2428 196.873 78.9737 196.848 78.7097L196.34 78.3847L196.375 79.5272Z" fill="#090604"/>
<path d="M177.791 79.3799L177.415 79.1412C177.41 79.2682 177.41 79.39 177.41 79.517C177.41 79.7861 177.42 80.0501 177.441 80.3091L177.862 80.5884L177.791 79.3799Z" fill="#090604"/>
<path d="M193.679 73.0023L194.273 72.8805C194.009 72.5961 193.73 72.3321 193.435 72.0833L192.846 72.2153L193.679 73.0023Z" fill="#090604"/>
<path d="M180.431 86.0367L180 86.1332C180.264 86.4176 180.548 86.6918 180.848 86.9457L181.34 86.8441L180.431 86.0367Z" fill="#090604"/>
<path d="M193.664 86.052L193.786 86.6461C194.07 86.3821 194.334 86.1028 194.583 85.8083L194.451 85.2193L193.664 86.052Z" fill="#090604"/>
<path d="M180.63 72.8043L180.533 72.3727C180.249 72.6367 179.975 72.921 179.721 73.2206L179.822 73.7132L180.63 72.8043Z" fill="#090604"/>
<path d="M189.516 70.6006L189.973 70.1944C189.607 70.0826 189.231 69.9912 188.85 69.9252L188.404 70.3365L189.516 70.6006Z" fill="#090604"/>
<path d="M184.621 88.5248L184.291 88.8295C184.661 88.9412 185.042 89.0377 185.433 89.1037L185.809 88.7686L184.621 88.5248Z" fill="#090604"/>
<path d="M196.325 80.7712L196.061 81.8832L196.467 82.3402C196.578 81.9746 196.67 81.5988 196.736 81.218L196.325 80.7712Z" fill="#090604"/>
<path d="M178.136 76.9883L177.832 76.6583C177.72 77.0289 177.623 77.4098 177.557 77.8007L177.892 78.1765L178.136 76.9883Z" fill="#090604"/>
<path d="M195.126 74.8861L195.736 74.9217C195.553 74.5815 195.35 74.2514 195.131 73.9366L194.527 73.9112L195.126 74.8861Z" fill="#090604"/>
<path d="M178.989 84.1021L178.542 84.0818C178.725 84.4271 178.933 84.7622 179.157 85.0821L179.66 85.1126L178.989 84.1021Z" fill="#090604"/>
<path d="M191.775 87.4991L191.74 88.1085C192.08 87.9257 192.41 87.7226 192.725 87.5042L192.75 86.9L191.775 87.4991Z" fill="#090604"/>
<path d="M182.564 71.3571L182.584 70.9103C182.239 71.0931 181.904 71.3013 181.584 71.5247L181.554 72.0274L182.564 71.3571Z" fill="#090604"/>
<path d="M191.805 71.5602L192.359 71.2911C192.034 71.088 191.699 70.9001 191.348 70.7326L190.8 71.0169L191.805 71.5602Z" fill="#090604"/>
<path d="M182.33 87.55L181.939 87.748C182.27 87.9562 182.61 88.1441 182.965 88.3167L183.412 88.0984L182.33 87.55Z" fill="#090604"/>
<path d="M195.126 84.1783L195.385 84.7064C195.589 84.3814 195.776 84.0463 195.944 83.6959L195.675 83.1729L195.126 84.1783Z" fill="#090604"/>
<path d="M179.142 74.7084L178.929 74.2971C178.72 74.6272 178.527 74.9674 178.36 75.3228L178.593 75.795L179.142 74.7084Z" fill="#090604"/>
<path d="M196.081 77.1813L196.65 77.3742C196.563 76.9934 196.457 76.6278 196.33 76.2673L195.761 76.0845L196.081 77.1813Z" fill="#090604"/>
<path d="M178.075 81.7868L177.644 81.6497C177.73 82.0356 177.837 82.4113 177.969 82.7769L178.456 82.9445L178.075 81.7868Z" fill="#090604"/>
<path d="M189.505 88.4538L189.317 89.0123C189.698 88.926 190.069 88.8194 190.429 88.6873L190.607 88.1288L189.505 88.4538Z" fill="#090604"/>
<path d="M184.9 70.4482L185.042 70.0065C184.656 70.0928 184.28 70.1994 183.915 70.3264L183.747 70.824L184.9 70.4482Z" fill="#090604"/>
<path d="M187.149 72.2C183.107 72.2 179.832 75.4752 179.832 79.517C179.832 83.5589 183.107 86.834 187.149 86.834C191.191 86.834 194.466 83.5589 194.466 79.517C194.461 75.4752 191.186 72.2 187.149 72.2ZM187.149 86.3059C183.402 86.3059 180.36 83.2695 180.36 79.517C180.36 75.7697 183.397 72.7281 187.149 72.7281C190.902 72.7281 193.938 75.7646 193.938 79.517C193.933 83.2644 190.897 86.3059 187.149 86.3059Z" fill="#E2E2E2"/>
<path d="M191.531 83.8999C193.952 81.4787 193.952 77.5532 191.531 75.132C189.11 72.7108 185.184 72.7108 182.763 75.132C180.342 77.5532 180.342 81.4787 182.763 83.8999C185.184 86.321 189.11 86.321 191.531 83.8999Z" fill="#BCBCBC"/>
<path d="M187.149 84.5998C189.956 84.5998 192.232 82.3242 192.232 79.517C192.232 76.7099 189.956 74.4342 187.149 74.4342C184.342 74.4342 182.066 76.7099 182.066 79.517C182.066 82.3242 184.342 84.5998 187.149 84.5998Z" fill="#E2E2E2"/>
<path opacity="0.42" d="M190.592 79.4814C190.196 79.4662 189.8 79.4408 189.404 79.4611C189.018 79.4865 188.637 79.5423 188.251 79.588C187.86 79.6337 187.469 79.6642 187.073 79.6287C186.697 79.5982 186.327 79.5881 185.951 79.5982C185.58 79.6134 185.21 79.6439 184.839 79.6693C184.656 79.6845 184.479 79.6998 184.296 79.6845C184.133 79.6693 183.971 79.6439 183.808 79.6084C183.24 79.4865 182.63 79.2885 182.062 79.4357C182.062 79.4611 182.062 79.4814 182.062 79.5068C182.062 82.3148 184.336 84.5896 187.144 84.5896C189.947 84.5896 192.222 82.3199 192.227 79.517C191.684 79.5322 191.135 79.5068 190.592 79.4814Z" fill="black"/>
<path opacity="0.31" d="M190.663 75.8458C189.749 74.9725 188.51 74.4342 187.149 74.4342C185.783 74.4342 184.549 74.9725 183.635 75.8458C184.549 76.7192 185.788 77.2574 187.149 77.2574C188.51 77.2574 189.749 76.7192 190.663 75.8458Z" fill="white"/>
<path d="M187.544 73.9939C187.594 73.7838 187.463 73.5732 187.253 73.5236C187.043 73.474 186.833 73.6041 186.783 73.8142C186.733 74.0244 186.863 74.235 187.074 74.2846C187.284 74.3342 187.494 74.2041 187.544 73.9939Z" fill="#1A1A1A"/>
<path d="M187.159 85.5035C187.375 85.5035 187.55 85.3284 187.55 85.1125C187.55 84.8966 187.375 84.7215 187.159 84.7215C186.943 84.7215 186.768 84.8966 186.768 85.1125C186.768 85.3284 186.943 85.5035 187.159 85.5035Z" fill="#1A1A1A"/>
<path d="M192.775 79.8926C192.991 79.8926 193.166 79.7176 193.166 79.5016C193.166 79.2857 192.991 79.1107 192.775 79.1107C192.559 79.1107 192.384 79.2857 192.384 79.5016C192.384 79.7176 192.559 79.8926 192.775 79.8926Z" fill="#1A1A1A"/>
<path d="M181.548 79.8927C181.764 79.8927 181.939 79.7177 181.939 79.5017C181.939 79.2858 181.764 79.1107 181.548 79.1107C181.333 79.1107 181.157 79.2858 181.157 79.5017C181.157 79.7177 181.333 79.8927 181.548 79.8927Z" fill="#1A1A1A"/>
<path d="M191.409 75.8102C191.257 75.9625 191.008 75.9625 190.856 75.8102C190.704 75.6578 190.704 75.409 190.856 75.2567C191.008 75.1044 191.257 75.1044 191.409 75.2567C191.562 75.409 191.562 75.6578 191.409 75.8102Z" fill="#1A1A1A"/>
<path d="M183.194 83.8583C183.41 83.8583 183.585 83.6833 183.585 83.4674C183.585 83.2514 183.41 83.0764 183.194 83.0764C182.978 83.0764 182.803 83.2514 182.803 83.4674C182.803 83.6833 182.978 83.8583 183.194 83.8583Z" fill="#1A1A1A"/>
<path d="M191.13 83.8583C191.346 83.8583 191.521 83.6833 191.521 83.4674C191.521 83.2514 191.346 83.0764 191.13 83.0764C190.914 83.0764 190.739 83.2514 190.739 83.4674C190.739 83.6833 190.914 83.8583 191.13 83.8583Z" fill="#1A1A1A"/>
<path d="M182.914 75.8102C182.762 75.6579 182.762 75.4091 182.914 75.2568C183.067 75.1044 183.315 75.1044 183.468 75.2568C183.62 75.4091 183.62 75.6579 183.468 75.8102C183.315 75.9626 183.067 75.9626 182.914 75.8102Z" fill="#1A1A1A"/>
<path d="M185.377 74.1651C185.458 74.3632 185.367 74.5967 185.164 74.678C184.961 74.7592 184.732 74.6678 184.651 74.4647C184.57 74.2667 184.661 74.0331 184.864 73.9519C185.062 73.8706 185.291 73.9671 185.377 74.1651Z" fill="#1A1A1A"/>
<path d="M189.673 84.5339C189.754 84.7319 189.662 84.9655 189.459 85.0467C189.261 85.128 189.028 85.0366 188.947 84.8335C188.865 84.6354 188.957 84.4019 189.16 84.3206C189.363 84.2394 189.586 84.3358 189.673 84.5339Z" fill="#1A1A1A"/>
<path d="M192.496 77.7144C192.298 77.7957 192.064 77.7043 191.983 77.5011C191.902 77.3031 191.993 77.0695 192.196 76.9883C192.394 76.907 192.628 76.9985 192.709 77.2016C192.79 77.4047 192.699 77.6332 192.496 77.7144Z" fill="#1A1A1A"/>
<path d="M182.127 82.0102C181.929 82.0914 181.696 82 181.614 81.7969C181.533 81.5988 181.625 81.3653 181.828 81.284C182.026 81.2028 182.259 81.2942 182.341 81.4973C182.422 81.7004 182.325 81.9289 182.127 82.0102Z" fill="#1A1A1A"/>
<path d="M189.673 74.4648C189.591 74.6628 189.363 74.7593 189.16 74.6781C188.957 74.5968 188.865 74.3683 188.947 74.1652C189.028 73.9672 189.256 73.8707 189.459 73.952C189.657 74.0383 189.754 74.2668 189.673 74.4648Z" fill="#1A1A1A"/>
<path d="M185.377 84.8385C185.296 85.0366 185.067 85.133 184.864 85.0518C184.666 84.9706 184.57 84.7421 184.651 84.5389C184.732 84.3409 184.961 84.2444 185.164 84.3257C185.367 84.4069 185.458 84.6354 185.377 84.8385Z" fill="#1A1A1A"/>
<path d="M192.196 82.0103C191.998 81.9291 191.902 81.7006 191.983 81.4975C192.064 81.2943 192.293 81.2029 192.496 81.2842C192.694 81.3654 192.791 81.5939 192.709 81.797C192.628 82.0001 192.394 82.0915 192.196 82.0103Z" fill="#1A1A1A"/>
<path d="M182.055 77.7342C182.267 77.6953 182.408 77.4916 182.369 77.2792C182.33 77.0668 182.126 76.9261 181.914 76.965C181.702 77.0038 181.561 77.2075 181.6 77.42C181.639 77.6324 181.842 77.7731 182.055 77.7342Z" fill="#1A1A1A"/>
<path d="M216.153 70.1029C216.138 68.7167 215.975 67.564 215.757 67.1883C215.706 67.107 215.656 67.0613 215.605 67.0613H215.336H214.493H214.371C214.665 68.0972 214.823 69.1838 214.823 70.2857V73.5405H215.331H215.6C215.65 73.5405 215.706 73.4948 215.752 73.4136C215.97 73.0429 216.138 71.8902 216.148 70.499C216.148 70.4329 216.148 70.3669 216.148 70.3009C216.148 70.2349 216.153 70.1689 216.153 70.1029Z" fill="#D3D3D3"/>
<path d="M216.077 68.6761H214.711C214.726 68.7929 214.742 68.9097 214.757 69.0265H216.113C216.097 68.9097 216.087 68.7929 216.077 68.6761Z" fill="#EAEAEA"/>
<path d="M215.752 67.1936C215.701 67.1124 215.65 67.0667 215.6 67.0667H215.331H214.493H214.371C214.477 67.4323 214.564 67.808 214.635 68.1889H216.021C215.95 67.7166 215.859 67.3663 215.752 67.1936Z" fill="#EAEAEA"/>
<path opacity="0.41" d="M214.823 71.4181V73.5456H215.331H215.6C215.65 73.5456 215.706 73.4999 215.752 73.4187C215.92 73.1343 216.057 72.3828 216.118 71.4181H214.823Z" fill="black"/>
<path d="M54.9458 5.1945L60.1403 0H72.7229L77.8717 5.1488L54.9458 5.1945Z" fill="#FFBC00"/>
<path opacity="0.15" d="M56.8296 3.30559L54.9458 5.1945L77.8717 5.1488L76.0335 3.30559H56.8296Z" fill="black"/>
<path d="M29.9128 16.5076L29.6386 17.447L27.6481 24.3781L27.5466 24.7386L27.5009 24.896L27.0185 26.5666L26.8662 27.0896L25.7998 30.8166L24.7284 34.5437L24.5761 35.0616L24.0937 36.7322L23.9465 37.2552L21.9966 44.0288L21.6818 45.1256L0 34.9296L3.06186 24.2816L5.20465 16.8377L6.12372 13.6337L29.9128 16.5076Z" fill="#686865"/>
<path d="M29.6387 17.4469L27.6482 24.378L27.5467 24.7385L27.501 24.8959L27.0186 26.5665L26.8663 27.0895L25.7999 30.8165L24.7285 34.5436L24.5762 35.0615L24.0938 36.7321L23.9466 37.2551L21.9967 44.0287L1.19336 34.3201L4.00133 24.5506L5.12858 20.6205L6.80931 14.7811L29.6387 17.4469Z" fill="#7C7C79"/>
<path d="M27.0192 26.5675L27.499 24.8985L12.7657 20.6629L12.2859 22.332L27.0192 26.5675Z" fill="#969692"/>
<path d="M24.0951 36.736L24.575 35.0669L9.84167 30.8314L9.36185 32.5004L24.0951 36.736Z" fill="#969692"/>
<path d="M12.283 22.3316L26.8661 27.0894L27.0185 26.5664L12.283 22.3316Z" fill="#686865"/>
<path d="M12.7654 20.661L27.6481 24.3779L27.5009 24.8958L12.7654 20.661Z" fill="#686865"/>
<path d="M24.0937 36.732L23.9414 37.255L20.0925 36.0008L15.3651 34.4572L9.36328 32.4972L14.0805 33.853L24.0937 36.732Z" fill="#686865"/>
<path d="M9.84058 30.8266L24.7284 34.5435L24.5761 35.0615L9.84058 30.8266Z" fill="#686865"/>
<path opacity="0.15" d="M24.0937 36.7322L23.9414 37.2552L21.9966 44.0289L21.6818 45.1256L0 34.9245L3.06186 24.2766L5.19958 16.8326C5.07771 17.9954 5.02693 19.2801 5.12849 20.6206C5.37222 24.0328 6.55532 27.8107 9.82029 30.8979C10.9679 31.9845 12.3693 32.9798 14.0805 33.8531C14.4918 34.0613 14.9234 34.2644 15.3702 34.4574C16.7615 35.0565 18.3305 35.5795 20.0976 36.001C21.3315 36.2955 22.6618 36.5392 24.0937 36.7322Z" fill="black"/>
<path d="M63.8064 4.33127H68.6912L40.2357 62.0699H36.7219L63.8064 4.33127Z" fill="#1C542D"/>
<path d="M38.2046 62.0699L67.0765 4.33127H163.898V62.0699H38.2046Z" fill="#FFBC00"/>
<path d="M161.298 6.92598V59.4752H42.4089L42.8862 58.5155L42.8913 58.5054L43.5514 57.1902L52.9503 38.3925L53.6104 37.0622L56.3472 31.5884L57.0124 30.2682L57.2206 29.8468L66.4113 11.4705L67.0714 10.1402L67.0765 10.1351L68.681 6.92598H161.298Z" fill="#CA9500"/>
<path d="M94.0036 6.90567H83.2693V59.4752H94.0036V6.90567Z" fill="#FFBC00"/>
<path opacity="0.29" d="M83.9294 58.81L83.2693 59.4752V6.90567L83.9294 7.57085V58.81Z" fill="#A0A247"/>
<path opacity="0.29" d="M93.9984 59.4751L93.3333 58.81V7.57079L93.9984 6.90561V59.4751Z" fill="#A0A247"/>
<path opacity="0.84" d="M93.9985 6.90567L93.3333 7.57085H83.9294L83.2693 6.90567H93.9985Z" fill="#A0A247"/>
<path opacity="0.36" d="M83.2693 59.4751L83.9294 58.8099H93.3333L93.9985 59.4751H83.2693Z" fill="white"/>
<path d="M107.464 6.90567H96.7302V59.4752H107.464V6.90567Z" fill="#FFBC00"/>
<path opacity="0.29" d="M97.3903 58.81L96.7302 59.4752V6.90567L97.3903 7.57085V58.81Z" fill="#1A4927"/>
<path opacity="0.29" d="M107.459 59.4751L106.794 58.81V7.57079L107.459 6.90561V59.4751Z" fill="#1A4927"/>
<path opacity="0.84" d="M107.459 6.90567L106.794 7.57085H97.3903L96.7302 6.90567H107.459Z" fill="#1A4927"/>
<path opacity="0.36" d="M96.7302 59.4751L97.3903 58.8099H106.794L107.459 59.4751H96.7302Z" fill="white"/>
<path d="M120.926 6.90567H110.191V59.4752H120.926V6.90567Z" fill="#FFBC00"/>
<path opacity="0.29" d="M110.852 58.81L110.191 59.4752V6.90567L110.852 7.57085V58.81Z" fill="#1A4927"/>
<path opacity="0.29" d="M120.921 59.4751L120.255 58.81V7.57079L120.921 6.90561V59.4751Z" fill="#1A4927"/>
<path opacity="0.84" d="M120.921 6.90567L120.255 7.57085H110.852L110.191 6.90567H120.921Z" fill="#1A4927"/>
<path opacity="0.36" d="M110.191 59.4751L110.852 58.8099H120.255L120.921 59.4751H110.191Z" fill="white"/>
<path d="M134.387 6.90567H123.652V59.4752H134.387V6.90567Z" fill="#FFBC00"/>
<path opacity="0.29" d="M124.312 58.81L123.652 59.4752V6.90567L124.312 7.57085V58.81Z" fill="#1A4927"/>
<path opacity="0.29" d="M134.381 59.4751L133.711 58.81V7.57079L134.381 6.90561V59.4751Z" fill="#1A4927"/>
<path opacity="0.84" d="M134.382 6.90567L133.711 7.57085H124.312L123.652 6.90567H134.382Z" fill="#1A4927"/>
<path opacity="0.36" d="M123.652 59.4751L124.312 58.8099H133.711L134.382 59.4751H123.652Z" fill="white"/>
<path d="M147.848 6.90567H137.113V59.4752H147.848V6.90567Z" fill="#FFBC00"/>
<path opacity="0.29" d="M137.773 58.81L137.113 59.4752V6.90567L137.773 7.57085V58.81Z" fill="#1A4927"/>
<path opacity="0.29" d="M147.843 59.4751L147.172 58.81V7.57079L147.843 6.90561V59.4751Z" fill="#1A4927"/>
<path opacity="0.84" d="M147.842 6.90567L147.172 7.57085H137.773L137.113 6.90567H147.842Z" fill="#1A4927"/>
<path opacity="0.36" d="M137.113 59.4751L137.773 58.8099H147.172L147.842 59.4751H137.113Z" fill="white"/>
<path d="M161.309 6.90567H150.574V59.4752H161.309V6.90567Z" fill="#FFBC00"/>
<path opacity="0.29" d="M151.234 58.81L150.574 59.4752V6.90567L151.234 7.57085V58.81Z" fill="#1A4927"/>
<path opacity="0.29" d="M161.304 59.4751L160.633 58.81V7.57079L161.304 6.90561V59.4751Z" fill="#1A4927"/>
<path opacity="0.84" d="M161.303 6.90567L160.633 7.57085H151.234L150.574 6.90567H161.303Z" fill="#1A4927"/>
<path opacity="0.36" d="M150.574 59.4751L151.234 58.8099H160.633L161.303 59.4751H150.574Z" fill="white"/>
<path d="M67.0713 10.1401L67.0764 59.4752H56.3472V31.5985L57.0123 30.2682L57.2205 29.8467L66.4112 11.4705L67.0713 10.1401Z" fill="#FFBC00"/>
<path d="M53.6206 37.052V59.4752H42.8914V58.5053L43.5515 57.1902L52.9503 38.3925L53.6104 37.0622L53.6206 37.052Z" fill="#FFBC00"/>
<path d="M80.5426 6.90567H69.8083V59.4752H80.5426V6.90567Z" fill="#FFBC00"/>
<path opacity="0.29" d="M70.4735 58.81L69.8083 59.4752V6.90567L70.4735 7.57085V58.81Z" fill="#1A4927"/>
<path opacity="0.29" d="M80.5375 59.4751L79.8723 58.81V7.57079L80.5375 6.90561V59.4751Z" fill="#1A4927"/>
<path opacity="0.84" d="M80.5376 6.90567L79.8724 7.57085H70.4735L69.8083 6.90567H80.5376Z" fill="#1A4927"/>
<path opacity="0.36" d="M69.8083 59.4751L70.4735 58.8099H79.8724L80.5376 59.4751H69.8083Z" fill="white"/>
<path opacity="0.29" d="M57.0123 30.2682V58.81L56.3472 59.4752V31.5986L57.0123 30.2682Z" fill="#1A4927"/>
<path opacity="0.29" d="M67.0712 10.1402L67.0763 59.4752L66.4111 58.81V11.4705L67.0712 10.1402Z" fill="#1A4927"/>
<path opacity="0.36" d="M56.3472 59.4752L57.0123 58.81H66.4112L67.0764 59.4752H56.3472Z" fill="white"/>
<path opacity="0.29" d="M43.5515 57.1903V58.8101L42.8914 59.4753V58.5054L43.5515 57.1903Z" fill="#1A4927"/>
<path opacity="0.29" d="M52.9502 38.3926L53.6205 37.0521V59.4752L52.9502 58.8101V38.3926Z" fill="#1A4927"/>
<path opacity="0.36" d="M42.8914 59.4752L43.5515 58.81H52.9503L53.6206 59.4752H42.8914Z" fill="white"/>
<path opacity="0.84" d="M67.0713 10.1401L66.4112 13.1055L56.992 31.8981L56.3472 31.5985L66.4112 11.4705L67.0713 10.1401Z" fill="#21592E"/>
<path opacity="0.84" d="M53.6206 37.052L52.9554 40.0174L43.5362 58.81L42.8914 58.5053L52.9554 38.3824L53.6206 37.052Z" fill="#21592E"/>
<path d="M34.4217 68.28L66.4113 4.33128H46.2731L14.0652 25.2667V68.28H34.4217Z" fill="#CA9500"/>
<path d="M62.207 6.92599L38.3163 54.692L37.0672 57.1902L36.7321 57.8656L33.1523 65.0099L32.8172 65.6853H16.6599V26.5615L47.1059 6.92599H62.207Z" fill="#FFBC00"/>
<path opacity="0.29" d="M50.3861 7.78921L27.2825 53.8288L25.9268 54.692L22.8853 57.1902L24.1344 54.692L49.8174 6.92599L50.3861 7.78921Z" fill="#1A4927"/>
<path opacity="0.29" d="M48.8324 6.92599L24.9418 54.692L23.6926 57.1902L23.2103 54.692L22.6619 53.8288L44.9835 9.20081L47.106 6.92599H48.8324Z" fill="#1A4927"/>
<path opacity="0.29" d="M62.2069 6.92599L38.3163 54.692L37.7476 53.8288L60.775 7.78921L62.2069 6.92599Z" fill="#1A4927"/>
<path d="M38.3163 54.692L37.0672 57.1903H16.6599V54.692H38.3163Z" fill="#CA9500"/>
<path opacity="0.84" d="M37.0672 57.1902L35.8689 57.8656H17.3352L16.6599 57.1902H37.0672Z" fill="#1A4927"/>
<path opacity="0.84" d="M17.3352 57.8656V65.0099L16.6599 65.6853V57.1902L17.3352 57.8656Z" fill="#21592E"/>
<path opacity="0.84" d="M17.3708 27.2622L17.3759 53.8288L16.6599 54.692V26.5615L17.3708 27.2622Z" fill="#21592E"/>
<path opacity="0.36" d="M32.3094 65.0099L32.8172 65.6852H16.6599L17.3352 65.0099H32.3094Z" fill="white"/>
<path opacity="0.84" d="M37.0671 57.1902L32.8171 65.6853L32.3093 65.0099L35.8688 57.8656L37.0671 57.1902Z" fill="#21592E"/>
<path d="M49.8173 6.92599L25.9266 54.692L24.6775 57.1902H21.9609L23.2101 54.692L47.1058 6.92599H49.8173Z" fill="#CA9500"/>
<path opacity="0.36" d="M37.7477 53.8288H27.2825L25.9268 54.692H38.3164L37.7477 53.8288Z" fill="white"/>
<path opacity="0.36" d="M22.6618 53.8288H17.3759L16.6599 54.692H23.2102L22.6618 53.8288Z" fill="white"/>
<path opacity="0.84" d="M50.3861 7.78921H60.7751L62.207 6.92599H49.8174L50.3861 7.78921Z" fill="#1A4927"/>
<path opacity="0.84" d="M17.3708 27.2622L44.9834 9.20081L47.1059 6.92599L16.6599 26.5615L17.3708 27.2622Z" fill="#1A4927"/>
<path d="M112.603 22.0627C111.314 21.5295 110.217 21.1284 109.277 20.8542C106.551 20.057 105.098 20.321 103.941 21.6057C102.92 22.7329 100.315 26.8662 100.315 26.8662L104.423 29.7554C104.423 29.7554 105.885 25.9522 108.241 23.6571C109.475 22.4536 110.958 21.6666 112.603 22.0627Z" fill="white"/>
<path d="M116.731 25.5967C115.33 23.6113 113.984 22.6364 112.735 22.3368C111.09 21.9459 109.607 22.7329 108.368 23.9312L112.319 28.7398L110.618 29.9534L116.305 30.5018L118.087 24.6269L116.731 25.5967Z" fill="white"/>
<path d="M96.1362 36.4884C96.1921 37.8797 96.2784 39.0476 96.4206 40.0174C96.8319 42.8305 97.6798 44.039 99.3301 44.5569C100.782 45.0139 105.621 45.6638 105.621 45.6638L106.535 40.7232C106.535 40.7232 102.468 40.9822 99.4012 39.794C97.8017 39.1694 96.4663 38.1488 96.1362 36.4884Z" fill="white"/>
<path d="M97.6291 31.2634C96.4105 33.3656 96.0804 34.9956 96.3343 36.2548C96.6644 37.9152 97.9947 38.9359 99.6044 39.5553L102.331 33.9597L104.144 35.0006L102.275 29.603L96.1921 30.4307L97.6291 31.2634Z" fill="white"/>
<path d="M116.549 43.6226C117.671 42.7949 118.585 42.0688 119.311 41.4036C121.408 39.4842 121.931 38.1031 121.433 36.4478C120.997 34.9905 118.818 30.6186 118.818 30.6186L114.218 32.6344C114.218 32.6344 116.716 35.8588 117.453 39.0628C117.833 40.7384 117.737 42.4141 116.549 43.6226Z" fill="white"/>
<path d="M111.385 45.3185C113.812 45.1459 115.34 44.5061 116.244 43.5921C117.432 42.3887 117.529 40.713 117.143 39.0323L110.983 39.9158L110.831 37.834L107.414 42.409L111.512 46.9789L111.385 45.3185Z" fill="white"/>
<path d="M172.82 23.652V17.9243C172.82 17.6298 173.058 17.3911 173.353 17.3911H200.448C202.291 17.3911 204.043 18.0817 205.388 19.341C206.617 20.4885 207.399 22.0017 207.622 23.652H172.82Z" fill="#FFBC00"/>
<path d="M199.965 17.7212C201.809 17.7212 203.56 18.4118 204.906 19.6711C206.048 20.7425 206.81 22.1338 207.084 23.6571H207.617C207.394 22.0068 206.612 20.4886 205.383 19.3461C204.038 18.0919 202.281 17.3963 200.443 17.3963H173.348C173.125 17.3963 172.937 17.5334 172.855 17.7212C172.861 17.7212 172.866 17.7212 172.866 17.7212H199.965Z" fill="#206334"/>
<path opacity="0.35" d="M210.938 28.0544H169.824V26.6478H210.842L210.938 28.0544Z" fill="#3D423E"/>
<path d="M203.713 79.1158H199.229C199.229 72.8448 194.146 67.762 187.875 67.762C181.604 67.762 176.521 72.8448 176.521 79.1158H171.916C172.307 70.6716 179.274 63.9487 187.814 63.9487C196.35 63.9487 203.322 70.6716 203.713 79.1158Z" fill="#DDDDDD"/>
<path d="M161.304 62.0699V79.1158L147.507 71.7582L38.5854 75.4802H19.6506V68.28H34.4217L37.5293 62.0699H161.304Z" fill="#272A28"/>
<path d="M93.9987 76.5719L93.1913 76.5668L89.576 76.5567L70.4026 76.4754L66.772 76.4602L63.1465 76.45L47.4716 73.9873L45.7401 73.7182L38.9258 76.2977H38.3013L43.2216 62.0649H89.6369L93.9987 76.5719Z" fill="#2B2B2B"/>
<path opacity="0.57" d="M68.4984 73.5506C68.4984 73.6369 68.4984 73.7232 68.4933 73.8096C68.4933 73.835 68.4933 73.8603 68.4933 73.8857C68.4933 73.9111 68.4933 73.9314 68.4933 73.9568C68.473 74.4747 68.4222 74.9876 68.3359 75.4852L64.1315 75.47L45.9482 72.6163C45.9787 72.2609 46.0244 71.9105 46.0853 71.5703V71.5652C46.1057 71.4586 46.126 71.357 46.1463 71.2504C46.1514 71.2199 46.1615 71.1945 46.1666 71.1641C46.1818 71.0879 46.1971 71.0168 46.2174 70.9407C46.2275 70.9051 46.2326 70.8696 46.2428 70.834C46.258 70.768 46.2783 70.6969 46.2935 70.6309C46.3037 70.5954 46.3138 70.5598 46.324 70.5243C46.3443 70.4532 46.3646 70.377 46.39 70.3059C46.3951 70.2856 46.4002 70.2653 46.4103 70.245C46.5728 69.7068 46.781 69.1838 47.0196 68.6862C47.0196 68.6811 47.0247 68.6811 47.0247 68.676C47.0704 68.5795 47.1161 68.4881 47.1669 68.3916C47.177 68.3713 47.1872 68.351 47.1974 68.3307C47.2329 68.2596 47.2735 68.1885 47.3141 68.1175C47.3294 68.087 47.3446 68.0565 47.3649 68.0311C47.4005 67.9651 47.436 67.9042 47.4766 67.8433C47.4919 67.8128 47.5122 67.7874 47.5274 67.7569C47.568 67.6858 47.6137 67.6148 47.6594 67.5487C47.6696 67.5335 47.6797 67.5183 47.6848 67.503C47.9641 67.0664 48.2738 66.6449 48.609 66.2539C48.6191 66.2438 48.6293 66.2336 48.6394 66.2235C48.6902 66.1625 48.7461 66.1016 48.8019 66.0407C48.8172 66.0254 48.8324 66.0051 48.8476 65.9899C48.9187 65.9137 48.9898 65.8376 49.0609 65.7614C49.0761 65.7462 49.0863 65.736 49.1015 65.7208C49.1624 65.6598 49.2183 65.5989 49.2792 65.538C49.3046 65.5126 49.3249 65.4923 49.3503 65.472C49.4011 65.4212 49.4569 65.3704 49.5128 65.3196C49.528 65.3044 49.5433 65.2942 49.5534 65.279C49.9342 64.9286 50.3405 64.5986 50.767 64.299C50.7822 64.2889 50.8025 64.2787 50.8178 64.2635C50.8787 64.2228 50.9396 64.1822 51.0006 64.1416C51.026 64.1213 51.0564 64.1061 51.0818 64.0857C51.1529 64.04 51.2189 63.9994 51.29 63.9537C51.3103 63.9436 51.3255 63.9283 51.3459 63.9182C51.4372 63.8623 51.5236 63.8116 51.615 63.7557C51.6302 63.7455 51.6505 63.7354 51.6657 63.7252C51.7368 63.6846 51.813 63.644 51.8892 63.6034C51.8993 63.5983 51.9095 63.5881 51.9247 63.5831C52.4223 63.319 52.9352 63.0905 53.4734 62.9026C53.4886 62.8976 53.509 62.8925 53.5242 62.8874C53.5902 62.862 53.6613 62.8417 53.7273 62.8214C53.7578 62.8112 53.7882 62.8011 53.8238 62.7909C53.9152 62.7605 54.0015 62.7351 54.0929 62.7097C54.103 62.7046 54.1132 62.7046 54.1234 62.6995C54.2249 62.6691 54.3265 62.6437 54.428 62.6183C54.4534 62.6132 54.4839 62.6031 54.5093 62.598C54.5854 62.5777 54.6616 62.5624 54.7378 62.5421C54.753 62.537 54.7682 62.537 54.7784 62.532C55.2709 62.4253 55.7736 62.3492 56.2865 62.3035C56.3017 62.3035 56.3118 62.3035 56.3271 62.2984C56.3575 62.2984 56.388 62.2933 56.4185 62.2933C56.4794 62.2882 56.5353 62.2832 56.5962 62.2832C56.6267 62.2832 56.6622 62.2781 56.6927 62.2781C56.7536 62.273 56.8145 62.273 56.8755 62.273C56.9059 62.273 56.9313 62.273 56.9618 62.2679C57.0481 62.2679 57.1395 62.2628 57.2309 62.2628C57.3172 62.2628 57.4036 62.2629 57.4899 62.2679C57.5153 62.2679 57.5407 62.2679 57.566 62.2679C57.5914 62.2679 57.6117 62.2679 57.6371 62.2679C58.1703 62.2882 58.6933 62.3441 59.2061 62.4304C59.2112 62.4304 59.2112 62.4304 59.2163 62.4304C59.3229 62.4507 59.4245 62.471 59.526 62.4913C59.5464 62.4964 59.5717 62.5015 59.5921 62.5066C59.6733 62.5218 59.7545 62.5421 59.8307 62.5624C59.8662 62.5726 59.8967 62.5777 59.9323 62.5878C59.9983 62.6031 60.0694 62.6234 60.1354 62.6386C60.1709 62.6488 60.2065 62.6589 60.242 62.6691C60.308 62.6894 60.374 62.7046 60.4451 62.7249C60.4654 62.73 60.4908 62.7402 60.5111 62.7452C61.0646 62.9128 61.5977 63.121 62.1106 63.3647C62.1157 63.3647 62.1157 63.3698 62.1207 63.3698C62.2121 63.4155 62.3086 63.4612 62.4 63.5069C62.4203 63.517 62.4406 63.5272 62.466 63.5424C62.5371 63.578 62.6082 63.6186 62.6742 63.6541C62.7047 63.6694 62.7352 63.6897 62.7656 63.7049C62.8266 63.7405 62.8875 63.776 62.9484 63.8115C62.9789 63.8319 63.0094 63.8471 63.0398 63.8674C63.1058 63.908 63.1668 63.9436 63.2328 63.9842C63.2531 63.9943 63.2683 64.0045 63.2886 64.0197C63.7253 64.299 64.1468 64.6088 64.5377 64.9388C64.553 64.949 64.5631 64.9591 64.5733 64.9693C64.6291 65.015 64.685 65.0657 64.7409 65.1114C64.7612 65.1318 64.7865 65.1521 64.8069 65.1724C64.883 65.2435 64.9592 65.3095 65.0354 65.3806L65.0404 65.3856C65.1115 65.4567 65.1826 65.5227 65.2537 65.5938C65.2791 65.6192 65.2994 65.6395 65.3197 65.6649C65.3705 65.7157 65.4213 65.7665 65.467 65.8223C65.4771 65.8376 65.4924 65.8477 65.5025 65.8579C65.863 66.2438 66.1931 66.65 66.4977 67.0867C66.5079 67.107 66.5231 67.1222 66.5333 67.1425C66.5739 67.2035 66.6145 67.2593 66.6551 67.3203C66.6755 67.3507 66.6958 67.3812 66.711 67.4066C66.7516 67.4675 66.7922 67.5284 66.8278 67.5894C66.843 67.6148 66.8633 67.6401 66.8786 67.6655C66.9852 67.8433 67.0868 68.021 67.1883 68.2038C67.1934 68.2139 67.1985 68.219 67.2035 68.2292C67.4727 68.7268 67.7012 69.2498 67.8941 69.788C67.8992 69.8083 67.9043 69.8236 67.9144 69.8439C67.9398 69.9099 67.9601 69.9759 67.9804 70.0419C67.9906 70.0774 68.0007 70.1079 68.016 70.1435C68.0363 70.2145 68.0617 70.2856 68.082 70.3567C68.0921 70.3821 68.0972 70.4126 68.1074 70.438C68.1378 70.5395 68.1632 70.636 68.1886 70.7375C68.1937 70.7528 68.1937 70.768 68.1988 70.7832C68.2191 70.8696 68.2394 70.9559 68.2597 71.0422C68.2648 71.0524 68.2648 71.0625 68.2648 71.0727C68.3765 71.5754 68.4577 72.0933 68.4984 72.6214C68.4984 72.6315 68.4984 72.6468 68.5034 72.6569C68.5085 72.6874 68.5085 72.7179 68.5085 72.7483C68.5136 72.8093 68.5187 72.8651 68.5187 72.926C68.5187 72.9565 68.5237 72.9921 68.5237 73.0225C68.5288 73.0834 68.5288 73.1444 68.5288 73.2053C68.5288 73.2358 68.5288 73.2612 68.5339 73.2916C68.4984 73.3678 68.4984 73.4592 68.4984 73.5506Z" fill="black"/>
<path opacity="0.37" d="M38.9258 76.2976L43.6684 62.6284L49.4925 62.6234L45.7401 73.7182L38.9258 76.2976Z" fill="black"/>
<path d="M93.9985 76.5719L97.822 71.3723L95.0039 62.0649H89.6367L93.9985 76.5719Z" fill="#161616"/>
<path d="M54.0776 65.2385C47.4461 65.2385 42.0688 70.6158 42.0688 77.2473C42.0688 83.8788 47.4461 89.2561 54.0776 89.2561C60.7091 89.2561 66.0864 83.8788 66.0864 77.2473C66.0864 70.6158 60.7091 65.2385 54.0776 65.2385ZM54.0776 86.3872C49.0304 86.3872 44.9378 82.2946 44.9378 77.2473C44.9378 72.2001 49.0304 68.1074 54.0776 68.1074C59.1249 68.1074 63.2175 72.2001 63.2175 77.2473C63.2175 82.2946 59.1249 86.3872 54.0776 86.3872Z" fill="#232323"/>
<path d="M54.0776 67.6809C48.7968 67.6809 44.5112 71.9614 44.5112 77.2473C44.5112 82.5332 48.7917 86.8137 54.0776 86.8137C59.3585 86.8137 63.644 82.5332 63.644 77.2473C63.644 71.9614 59.3585 67.6809 54.0776 67.6809ZM54.0776 84.5287C50.0561 84.5287 46.7962 81.2688 46.7962 77.2473C46.7962 73.2257 50.0561 69.9658 54.0776 69.9658C58.0992 69.9658 61.3591 73.2257 61.3591 77.2473C61.3591 81.2688 58.0992 84.5287 54.0776 84.5287Z" fill="url(#paint2_radial_19625_395)"/>
<path d="M54.0775 68.8793C49.4568 68.8793 45.7095 72.6266 45.7095 77.2473C45.7095 81.8681 49.4568 85.6154 54.0775 85.6154C58.6983 85.6154 62.4456 81.8681 62.4456 77.2473C62.4456 72.6266 58.6983 68.8793 54.0775 68.8793ZM54.0775 84.1683C50.254 84.1683 47.1566 81.0709 47.1566 77.2473C47.1566 73.4238 50.254 70.3264 54.0775 70.3264C57.9011 70.3264 60.9985 73.4238 60.9985 77.2473C60.9985 81.0709 57.9011 84.1683 54.0775 84.1683Z" fill="url(#paint3_radial_19625_395)"/>
<path d="M54.0775 68.8793C49.4568 68.8793 45.7095 72.6266 45.7095 77.2473C45.7095 81.8681 49.4568 85.6154 54.0775 85.6154C58.6983 85.6154 62.4456 81.8681 62.4456 77.2473C62.4456 72.6266 58.6983 68.8793 54.0775 68.8793ZM54.0775 85.0518C49.7666 85.0518 46.2731 81.5583 46.2731 77.2473C46.2731 72.9364 49.7666 69.4429 54.0775 69.4429C58.3885 69.4429 61.882 72.9364 61.882 77.2473C61.882 81.5583 58.3885 85.0518 54.0775 85.0518Z" fill="#919191"/>
<path d="M54.0928 65.8682L54.504 65.2436C54.3619 65.2385 54.2197 65.2385 54.0775 65.2385C53.7424 65.2385 53.4123 65.2538 53.0823 65.2791L52.6812 65.9088L54.0928 65.8682Z" fill="#090604"/>
<path d="M53.9049 88.7838L53.6104 89.2459C53.7627 89.251 53.9201 89.2561 54.0775 89.2561C54.4076 89.2561 54.7325 89.2408 55.0575 89.2154L55.4028 88.6975L53.9049 88.7838Z" fill="#090604"/>
<path d="M65.4518 77.2626L66.0763 77.6738C66.0814 77.5317 66.0814 77.3895 66.0814 77.2473C66.0814 76.9122 66.0662 76.5821 66.0408 76.2521L65.4111 75.851L65.4518 77.2626Z" fill="#090604"/>
<path d="M42.536 77.0747L42.0739 76.7802C42.0688 76.9325 42.0637 77.0899 42.0637 77.2473C42.0637 77.5774 42.079 77.9024 42.1043 78.2273L42.6223 78.5726L42.536 77.0747Z" fill="#090604"/>
<path d="M62.1309 69.2144L62.8621 69.0671C62.5371 68.7218 62.1919 68.3918 61.8313 68.082L61.1052 68.2445L62.1309 69.2144Z" fill="#090604"/>
<path d="M45.7959 85.2853L45.2627 85.4021C45.5877 85.7576 45.938 86.0876 46.3087 86.4024L46.918 86.2806L45.7959 85.2853Z" fill="#090604"/>
<path d="M62.1106 85.3006L62.2579 86.0318C62.6031 85.7068 62.9332 85.3615 63.2429 85.001L63.0804 84.2749L62.1106 85.3006Z" fill="#090604"/>
<path d="M46.0397 68.9656L45.9229 68.4324C45.5675 68.7574 45.2374 69.1078 44.9226 69.4784L45.0445 70.0878L46.0397 68.9656Z" fill="#090604"/>
<path d="M56.9972 66.249L57.5608 65.7514C57.1089 65.6143 56.6468 65.5026 56.1746 65.4213L55.6262 65.924L56.9972 66.249Z" fill="#090604"/>
<path d="M50.9599 88.3574L50.5537 88.728C51.0107 88.8702 51.4829 88.9819 51.9602 89.0682L52.4274 88.6569L50.9599 88.3574Z" fill="#090604"/>
<path d="M65.3958 78.796L65.0708 80.1721L65.5684 80.7357C65.7055 80.2838 65.8172 79.8217 65.8985 79.3495L65.3958 78.796Z" fill="#090604"/>
<path d="M42.9675 74.1296L42.5968 73.7234C42.4546 74.1804 42.3429 74.6526 42.2566 75.1299L42.6679 75.597L42.9675 74.1296Z" fill="#090604"/>
<path d="M63.9183 71.54L64.6647 71.5857C64.4413 71.1643 64.1874 70.758 63.9183 70.3721L63.1719 70.3417L63.9183 71.54Z" fill="#090604"/>
<path d="M44.0186 82.8989L43.4702 82.8785C43.6987 83.3051 43.9475 83.7164 44.2268 84.1124L44.8463 84.148L44.0186 82.8989Z" fill="#090604"/>
<path d="M59.785 87.088L59.7393 87.8344C60.1607 87.611 60.5669 87.3571 60.9528 87.088L60.9833 86.3415L59.785 87.088Z" fill="#090604"/>
<path d="M48.421 67.1884L48.4413 66.64C48.0148 66.8685 47.6035 67.1173 47.2074 67.3966L47.1719 68.0161L48.421 67.1884Z" fill="#090604"/>
<path d="M59.8205 67.4372L60.5009 67.102C60.0998 66.8482 59.6885 66.6197 59.2569 66.4115L58.5815 66.7567L59.8205 67.4372Z" fill="#090604"/>
<path d="M48.1418 87.1539L47.6594 87.4027C48.0656 87.6617 48.4871 87.8953 48.9238 88.1035L49.4722 87.8344L48.1418 87.1539Z" fill="#090604"/>
<path d="M63.9182 82.9953L64.2381 83.6453C64.492 83.2441 64.7205 82.8278 64.9236 82.3961L64.5936 81.7513L63.9182 82.9953Z" fill="#090604"/>
<path d="M44.2013 71.3166L43.9373 70.8088C43.6783 71.215 43.4448 71.6365 43.2366 72.0732L43.5209 72.6571L44.2013 71.3166Z" fill="#090604"/>
<path d="M65.0911 74.3682L65.7918 74.6069C65.6852 74.1398 65.5531 73.6828 65.3957 73.241L64.6899 73.0176L65.0911 74.3682Z" fill="#090604"/>
<path d="M42.8913 80.0502L42.3582 79.8776C42.4648 80.3498 42.5968 80.817 42.7593 81.2689L43.3585 81.472L42.8913 80.0502Z" fill="#090604"/>
<path d="M56.9821 88.266L56.7485 88.9566C57.2157 88.8499 57.6727 88.7179 58.1195 88.5554L58.3379 87.8699L56.9821 88.266Z" fill="#090604"/>
<path d="M51.3051 66.0662L51.4777 65.5229C51.0055 65.6295 50.5434 65.7615 50.0915 65.9189L49.8833 66.5333L51.3051 66.0662Z" fill="#090604"/>
<path d="M54.0776 68.2293C49.0964 68.2293 45.0596 72.2661 45.0596 77.2474C45.0596 82.2286 49.0964 86.2654 54.0776 86.2654C59.0588 86.2654 63.0956 82.2286 63.0956 77.2474C63.0956 72.2661 59.0588 68.2293 54.0776 68.2293ZM54.0776 85.6154C49.4569 85.6154 45.7095 81.8681 45.7095 77.2474C45.7095 72.6266 49.4569 68.8793 54.0776 68.8793C58.6983 68.8793 62.4457 72.6266 62.4457 77.2474C62.4457 81.8681 58.6983 85.6154 54.0776 85.6154Z" fill="#E2E2E2"/>
<path d="M54.0775 84.8893C58.298 84.8893 61.7195 81.4679 61.7195 77.2473C61.7195 73.0268 58.298 69.6054 54.0775 69.6054C49.857 69.6054 46.4355 73.0268 46.4355 77.2473C46.4355 81.4679 49.857 84.8893 54.0775 84.8893Z" fill="#BCBCBC"/>
<path d="M54.0777 83.5132C57.5382 83.5132 60.3436 80.7079 60.3436 77.2473C60.3436 73.7868 57.5382 70.9814 54.0777 70.9814C50.6171 70.9814 47.8118 73.7868 47.8118 77.2473C47.8118 80.7079 50.6171 83.5132 54.0777 83.5132Z" fill="#E2E2E2"/>
<path opacity="0.42" d="M58.3277 77.2067C57.8402 77.1864 57.3527 77.1559 56.8653 77.1864C56.388 77.2169 55.9157 77.288 55.4435 77.3438C54.9611 77.3997 54.4787 77.4403 53.9913 77.3946C53.5292 77.354 53.0671 77.3438 52.6051 77.3591C52.1481 77.3743 51.6911 77.4149 51.229 77.4505C51.0056 77.4657 50.7822 77.486 50.5588 77.4708C50.3556 77.4555 50.1576 77.42 49.9596 77.3794C49.2538 77.2321 48.5074 76.9833 47.8066 77.1661C47.8066 77.1966 47.8066 77.227 47.8066 77.2524C47.8066 80.7154 50.6146 83.5183 54.0725 83.5183C57.5304 83.5183 60.3333 80.7205 60.3384 77.2626C59.6732 77.2677 58.9979 77.2321 58.3277 77.2067Z" fill="black"/>
<path opacity="0.31" d="M54.0776 74.4647C56.4725 74.4647 58.4139 73.685 58.4139 72.7231C58.4139 71.7612 56.4725 70.9814 54.0776 70.9814C51.6827 70.9814 49.7412 71.7612 49.7412 72.7231C49.7412 73.685 51.6827 74.4647 54.0776 74.4647Z" fill="white"/>
<path d="M54.5612 70.4259C54.6225 70.1666 54.4619 69.9068 54.2026 69.8456C53.9434 69.7843 53.6835 69.9449 53.6223 70.2042C53.5611 70.4634 53.7217 70.7232 53.9809 70.7845C54.2402 70.8457 54.5 70.6851 54.5612 70.4259Z" fill="#1A1A1A"/>
<path d="M54.4327 84.4893C54.6211 84.3009 54.6211 83.9955 54.4327 83.8071C54.2443 83.6187 53.9389 83.6187 53.7505 83.8071C53.5621 83.9955 53.5621 84.3009 53.7505 84.4893C53.9389 84.6777 54.2443 84.6777 54.4327 84.4893Z" fill="#1A1A1A"/>
<path d="M61.3536 77.5686C61.542 77.3803 61.542 77.0748 61.3536 76.8864C61.1652 76.6981 60.8598 76.6981 60.6714 76.8864C60.483 77.0748 60.483 77.3803 60.6714 77.5686C60.8598 77.757 61.1652 77.757 61.3536 77.5686Z" fill="#1A1A1A"/>
<path d="M47.1718 77.7093C47.4382 77.7093 47.6542 77.4934 47.6542 77.227C47.6542 76.9605 47.4382 76.7446 47.1718 76.7446C46.9054 76.7446 46.6895 76.9605 46.6895 77.227C46.6895 77.4934 46.9054 77.7093 47.1718 77.7093Z" fill="#1A1A1A"/>
<path d="M58.9875 72.8143C59.2539 72.8143 59.4699 72.5984 59.4699 72.332C59.4699 72.0655 59.2539 71.8496 58.9875 71.8496C58.7211 71.8496 58.5051 72.0655 58.5051 72.332C58.5051 72.5984 58.7211 72.8143 58.9875 72.8143Z" fill="#1A1A1A"/>
<path d="M49.1977 82.6042C49.4641 82.6042 49.6801 82.3882 49.6801 82.1218C49.6801 81.8554 49.4641 81.6394 49.1977 81.6394C48.9313 81.6394 48.7153 81.8554 48.7153 82.1218C48.7153 82.3882 48.9313 82.6042 49.1977 82.6042Z" fill="#1A1A1A"/>
<path d="M58.9875 82.6042C59.2539 82.6042 59.4699 82.3882 59.4699 82.1218C59.4699 81.8554 59.2539 81.6394 58.9875 81.6394C58.7211 81.6394 58.5051 81.8554 58.5051 82.1218C58.5051 82.3882 58.7211 82.6042 58.9875 82.6042Z" fill="#1A1A1A"/>
<path d="M49.1977 72.8144C49.4641 72.8144 49.6801 72.5984 49.6801 72.332C49.6801 72.0656 49.4641 71.8496 49.1977 71.8496C48.9313 71.8496 48.7153 72.0656 48.7153 72.332C48.7153 72.5984 48.9313 72.8144 49.1977 72.8144Z" fill="#1A1A1A"/>
<path d="M51.8941 70.6463C51.9957 70.8951 51.8789 71.1744 51.6301 71.276C51.3813 71.3775 51.102 71.2607 51.0005 71.0119C50.8989 70.7631 51.0157 70.4838 51.2645 70.3823C51.5082 70.2858 51.7875 70.4026 51.8941 70.6463Z" fill="#1A1A1A"/>
<path d="M57.1834 83.8203C57.2937 83.5778 57.1865 83.2918 56.944 83.1815C56.7015 83.0712 56.4155 83.1784 56.3052 83.4209C56.1949 83.6634 56.3021 83.9495 56.5446 84.0598C56.7871 84.17 57.0731 84.0629 57.1834 83.8203Z" fill="#1A1A1A"/>
<path d="M60.9336 74.7641C61.0356 74.518 60.9187 74.2358 60.6726 74.1339C60.4264 74.0319 60.1442 74.1488 60.0423 74.3949C59.9403 74.6411 60.0572 74.9233 60.3033 75.0252C60.5495 75.1272 60.8317 75.0103 60.9336 74.7641Z" fill="#1A1A1A"/>
<path d="M48.1729 79.9782C48.2269 79.7174 48.0592 79.4621 47.7984 79.4081C47.5375 79.354 47.2822 79.5217 47.2282 79.7826C47.1742 80.0435 47.3418 80.2987 47.6027 80.3528C47.8636 80.4068 48.1189 80.2391 48.1729 79.9782Z" fill="#1A1A1A"/>
<path d="M57.2133 70.9507C57.2814 70.6931 57.1279 70.4291 56.8703 70.361C56.6127 70.2929 56.3487 70.4464 56.2806 70.704C56.2125 70.9616 56.366 71.2256 56.6236 71.2937C56.8812 71.3618 57.1452 71.2083 57.2133 70.9507Z" fill="#1A1A1A"/>
<path d="M51.6342 84.0663C51.8804 83.9643 51.9972 83.6822 51.8953 83.436C51.7933 83.1899 51.5111 83.073 51.265 83.175C51.0189 83.2769 50.902 83.5591 51.0039 83.8052C51.1059 84.0514 51.3881 84.1683 51.6342 84.0663Z" fill="#1A1A1A"/>
<path d="M60.3028 80.3245C60.054 80.2229 59.9372 79.9386 60.0388 79.6949C60.1403 79.4461 60.4247 79.3293 60.6684 79.4308C60.9172 79.5324 61.034 79.8167 60.9325 80.0605C60.8309 80.3093 60.5516 80.426 60.3028 80.3245Z" fill="#1A1A1A"/>
<path d="M47.8053 75.0505C48.0656 74.9937 48.2305 74.7366 48.1737 74.4763C48.1168 74.216 47.8597 74.0511 47.5995 74.108C47.3392 74.1648 47.1743 74.4219 47.2311 74.6822C47.288 74.9425 47.5451 75.1074 47.8053 75.0505Z" fill="#1A1A1A"/>
<path opacity="0.57" d="M93.6686 75.4751L92.8663 75.47L90.0634 75.4599L71.8801 72.6062C71.9106 72.2507 71.9563 71.9004 72.0172 71.5602C72.0172 71.5602 72.0172 71.5602 72.0172 71.5551C72.0375 71.4485 72.0578 71.3469 72.0782 71.2403C72.0832 71.2098 72.0934 71.1844 72.0985 71.154C72.1137 71.0778 72.1289 71.0067 72.1492 70.9305C72.1594 70.895 72.1645 70.8595 72.1746 70.8239C72.1899 70.7579 72.2102 70.6868 72.2254 70.6208C72.2356 70.5853 72.2457 70.5497 72.2559 70.5142C72.2762 70.4431 72.2965 70.3669 72.3219 70.2958C72.327 70.2755 72.332 70.2552 72.3422 70.2349C72.5098 69.6967 72.7129 69.1737 72.9515 68.676C72.9515 68.671 72.9566 68.671 72.9566 68.6659C73.0023 68.5694 73.048 68.478 73.0988 68.3815C73.1089 68.3612 73.1191 68.3409 73.1292 68.3206C73.1648 68.2495 73.2054 68.1784 73.246 68.1073C73.2613 68.0769 73.2765 68.0464 73.2968 68.021C73.3324 67.955 73.3679 67.8941 73.4085 67.8331C73.4237 67.8027 73.4441 67.7773 73.4593 67.7468C73.4999 67.6757 73.5456 67.6046 73.5913 67.5386C73.6015 67.5234 73.6116 67.5082 73.6167 67.4929C73.896 67.0562 74.2057 66.6348 74.5408 66.2438C74.551 66.2337 74.5612 66.2235 74.5713 66.2133C74.6221 66.1524 74.6779 66.0915 74.7338 66.0305C74.749 66.0153 74.7643 65.995 74.7795 65.9798C74.8506 65.9036 74.9217 65.8274 74.9928 65.7513C75.008 65.736 75.0182 65.7259 75.0334 65.7107C75.0943 65.6497 75.1502 65.5888 75.2111 65.5279C75.2365 65.5025 75.2568 65.4822 75.2822 65.4618C75.333 65.4111 75.3888 65.3603 75.4447 65.3095C75.4599 65.2943 75.4751 65.2841 75.4853 65.2689C75.8661 64.9135 76.2723 64.5885 76.6989 64.2889C76.7141 64.2787 76.7344 64.2686 76.7497 64.2534C76.8106 64.2127 76.8715 64.1721 76.9324 64.1315C76.9578 64.1112 76.9883 64.0959 77.0137 64.0756C77.0848 64.0299 77.1508 63.9893 77.2219 63.9436C77.2422 63.9335 77.2574 63.9182 77.2777 63.9081C77.3691 63.8522 77.4555 63.8014 77.5469 63.7456C77.5621 63.7354 77.5824 63.7253 77.5976 63.7151C77.6687 63.6745 77.7449 63.6339 77.821 63.5932C77.8312 63.5882 77.8414 63.578 77.8566 63.5729C78.3542 63.3089 78.8721 63.0804 79.4053 62.8925C79.4205 62.8874 79.4408 62.8824 79.4561 62.8773C79.5221 62.8519 79.5932 62.8316 79.6592 62.8113C79.6896 62.8011 79.7201 62.791 79.7557 62.7808C79.8471 62.7503 79.9334 62.725 80.0248 62.6996C80.0349 62.6945 80.0451 62.6945 80.0552 62.6894C80.1314 62.6691 80.2076 62.6488 80.2888 62.6285C80.3142 62.6234 80.3396 62.6132 80.3599 62.6082C80.3853 62.6031 80.4158 62.5929 80.4411 62.5879C80.5173 62.5675 80.5935 62.5523 80.6696 62.532C80.6849 62.5269 80.7001 62.5269 80.7103 62.5219C81.2028 62.4152 81.7055 62.3391 82.2183 62.2934C82.2336 62.2934 82.2437 62.2934 82.259 62.2883C82.2894 62.2883 82.3199 62.2832 82.3504 62.2832C82.4113 62.2781 82.4671 62.273 82.5281 62.273C82.5585 62.273 82.5941 62.268 82.6246 62.268C82.6855 62.2629 82.7464 62.2629 82.8074 62.2629C82.8327 62.2629 82.8632 62.2629 82.8937 62.2578C82.9851 62.2578 83.0714 62.2527 83.1628 62.2527C83.2491 62.2527 83.3354 62.2527 83.4218 62.2578C83.4471 62.2578 83.4725 62.2578 83.4979 62.2578C83.5233 62.2578 83.5436 62.2578 83.569 62.2578C84.1022 62.2781 84.6252 62.334 85.138 62.4203C85.1431 62.4203 85.1431 62.4203 85.1482 62.4203C85.2548 62.4406 85.3564 62.4609 85.4579 62.4812C85.4782 62.4863 85.4985 62.4914 85.5239 62.4965C85.6052 62.5117 85.6864 62.532 85.7626 62.5523C85.7981 62.5625 85.8286 62.5676 85.8641 62.5777C85.92 62.5929 85.9708 62.6031 86.0266 62.6183C86.0419 62.6234 86.052 62.6234 86.0672 62.6285C86.1028 62.6386 86.1383 62.6488 86.1739 62.6589C86.2399 62.6793 86.3059 62.6945 86.377 62.7148C86.3973 62.7199 86.4227 62.73 86.443 62.7351C86.9965 62.9027 87.5296 63.1109 88.0425 63.3546C88.0476 63.3546 88.0475 63.3597 88.0526 63.3597C88.144 63.4054 88.2405 63.4511 88.3319 63.4968C88.3522 63.5069 88.3725 63.5171 88.3979 63.5323C88.469 63.5679 88.5401 63.6085 88.6061 63.644C88.6366 63.6593 88.667 63.6796 88.6975 63.6948C88.7584 63.7303 88.8194 63.7659 88.8803 63.8014C88.9108 63.8217 88.9412 63.837 88.9717 63.8573C89.0377 63.8979 89.0986 63.9335 89.1647 63.9741C89.185 63.9842 89.2002 63.9944 89.2205 64.0096C89.3424 64.0858 89.4592 64.167 89.581 64.2483C89.8908 64.4615 90.1904 64.69 90.4747 64.9338C90.4899 64.9439 90.5001 64.9541 90.5102 64.9693C90.5255 64.9795 90.5407 64.9947 90.5509 65.0048L93.6686 75.4751Z" fill="black"/>
<path d="M80.0146 65.2385C73.3832 65.2385 68.0059 70.6158 68.0059 77.2473C68.0059 83.8788 73.3832 89.2561 80.0146 89.2561C86.6461 89.2561 92.0234 83.8788 92.0234 77.2473C92.0234 70.6158 86.6461 65.2385 80.0146 65.2385ZM80.0146 86.3872C74.9674 86.3872 70.8748 82.2946 70.8748 77.2473C70.8748 72.2001 74.9674 68.1074 80.0146 68.1074C85.0619 68.1074 89.1545 72.2001 89.1545 77.2473C89.1545 82.2946 85.0619 86.3872 80.0146 86.3872Z" fill="#232323"/>
<path d="M80.0146 67.6809C74.7338 67.6809 70.4482 71.9614 70.4482 77.2473C70.4482 82.5332 74.7288 86.8137 80.0146 86.8137C85.2955 86.8137 89.5811 82.5332 89.5811 77.2473C89.5811 71.9614 85.2955 67.6809 80.0146 67.6809ZM80.0146 84.5287C75.9931 84.5287 72.7332 81.2688 72.7332 77.2473C72.7332 73.2257 75.9931 69.9658 80.0146 69.9658C84.0362 69.9658 87.2961 73.2257 87.2961 77.2473C87.2961 81.2688 84.0362 84.5287 80.0146 84.5287Z" fill="url(#paint4_radial_19625_395)"/>
<path d="M80.0145 68.8793C75.3938 68.8793 71.6465 72.6266 71.6465 77.2473C71.6465 81.8681 75.3938 85.6154 80.0145 85.6154C84.6353 85.6154 88.3826 81.8681 88.3826 77.2473C88.3826 72.6266 84.6353 68.8793 80.0145 68.8793ZM80.0145 84.1683C76.191 84.1683 73.0936 81.0709 73.0936 77.2473C73.0936 73.4238 76.191 70.3264 80.0145 70.3264C83.8381 70.3264 86.9355 73.4238 86.9355 77.2473C86.9355 81.0709 83.8381 84.1683 80.0145 84.1683Z" fill="url(#paint5_radial_19625_395)"/>
<path d="M80.0145 68.8793C75.3938 68.8793 71.6465 72.6266 71.6465 77.2473C71.6465 81.8681 75.3938 85.6154 80.0145 85.6154C84.6353 85.6154 88.3826 81.8681 88.3826 77.2473C88.3826 72.6266 84.6353 68.8793 80.0145 68.8793ZM80.0145 85.0518C75.7036 85.0518 72.2101 81.5583 72.2101 77.2473C72.2101 72.9364 75.7036 69.4429 80.0145 69.4429C84.3255 69.4429 87.819 72.9364 87.819 77.2473C87.819 81.5583 84.3255 85.0518 80.0145 85.0518Z" fill="#919191"/>
<path d="M80.0298 65.8682L80.4411 65.2436C80.2989 65.2385 80.1567 65.2385 80.0145 65.2385C79.6794 65.2385 79.3494 65.2538 79.0193 65.2791L78.6182 65.9088L80.0298 65.8682Z" fill="#090604"/>
<path d="M79.8419 88.7838L79.5474 89.2459C79.6997 89.251 79.8571 89.2561 80.0145 89.2561C80.3446 89.2561 80.6695 89.2408 80.9945 89.2154L81.3398 88.6975L79.8419 88.7838Z" fill="#090604"/>
<path d="M91.3888 77.2626L92.0133 77.6738C92.0184 77.5317 92.0184 77.3895 92.0184 77.2473C92.0184 76.9122 92.0032 76.5821 91.9778 76.2521L91.3481 75.851L91.3888 77.2626Z" fill="#090604"/>
<path d="M68.473 77.0747L68.0109 76.7802C68.0058 76.9325 68.0007 77.0899 68.0007 77.2473C68.0007 77.5774 68.016 77.9024 68.0414 78.2273L68.5593 78.5726L68.473 77.0747Z" fill="#090604"/>
<path d="M88.0679 69.2144L88.7991 69.0671C88.4742 68.7218 88.1289 68.3918 87.7684 68.082L87.0422 68.2445L88.0679 69.2144Z" fill="#090604"/>
<path d="M71.7329 85.2853L71.1997 85.4021C71.5247 85.7576 71.875 86.0876 72.2457 86.4024L72.855 86.2806L71.7329 85.2853Z" fill="#090604"/>
<path d="M88.0476 85.3006L88.1949 86.0318C88.5401 85.7068 88.8702 85.3615 89.1799 85.001L89.0174 84.2749L88.0476 85.3006Z" fill="#090604"/>
<path d="M71.9765 68.9656L71.8597 68.4324C71.5042 68.7574 71.1742 69.1078 70.8594 69.4784L70.9812 70.0878L71.9765 68.9656Z" fill="#090604"/>
<path d="M82.9342 66.249L83.4978 65.7514C83.0459 65.6143 82.5839 65.5026 82.1116 65.4213L81.5632 65.924L82.9342 66.249Z" fill="#090604"/>
<path d="M76.8969 88.3574L76.4907 88.728C76.9477 88.8702 77.4199 88.9819 77.8973 89.0682L78.3644 88.6569L76.8969 88.3574Z" fill="#090604"/>
<path d="M91.3328 78.796L91.0078 80.1721L91.5054 80.7357C91.6425 80.2838 91.7542 79.8217 91.8355 79.3495L91.3328 78.796Z" fill="#090604"/>
<path d="M68.9045 74.1296L68.5338 73.7234C68.3916 74.1804 68.2799 74.6526 68.1936 75.1299L68.6049 75.597L68.9045 74.1296Z" fill="#090604"/>
<path d="M89.8553 71.54L90.6017 71.5857C90.3783 71.1643 90.1244 70.758 89.8553 70.3721L89.1089 70.3417L89.8553 71.54Z" fill="#090604"/>
<path d="M69.9556 82.8989L69.4072 82.8785C69.6357 83.3051 69.8845 83.7164 70.1638 84.1124L70.7833 84.148L69.9556 82.8989Z" fill="#090604"/>
<path d="M85.722 87.088L85.6763 87.8344C86.0977 87.611 86.5039 87.3571 86.8898 87.088L86.9203 86.3415L85.722 87.088Z" fill="#090604"/>
<path d="M74.358 67.1884L74.3783 66.64C73.9518 66.8685 73.5405 67.1173 73.1444 67.3966L73.1089 68.0161L74.358 67.1884Z" fill="#090604"/>
<path d="M85.7575 67.4372L86.4379 67.102C86.0368 66.8482 85.6255 66.6197 85.1939 66.4115L84.5186 66.7567L85.7575 67.4372Z" fill="#090604"/>
<path d="M74.0788 87.1539L73.5964 87.4027C74.0027 87.6617 74.4241 87.8953 74.8608 88.1035L75.4092 87.8344L74.0788 87.1539Z" fill="#090604"/>
<path d="M89.8552 82.9953L90.1751 83.6453C90.429 83.2441 90.6575 82.8278 90.8606 82.3961L90.5306 81.7513L89.8552 82.9953Z" fill="#090604"/>
<path d="M70.1383 71.3166L69.8743 70.8088C69.6153 71.215 69.3818 71.6365 69.1736 72.0732L69.4579 72.6571L70.1383 71.3166Z" fill="#090604"/>
<path d="M91.0281 74.3682L91.7288 74.6069C91.6222 74.1398 91.4902 73.6828 91.3327 73.241L90.627 73.0176L91.0281 74.3682Z" fill="#090604"/>
<path d="M68.8283 80.0502L68.2952 79.8776C68.4018 80.3498 68.5338 80.817 68.6963 81.2689L69.2955 81.472L68.8283 80.0502Z" fill="#090604"/>
<path d="M82.9191 88.266L82.6855 88.9566C83.1527 88.8499 83.6097 88.7179 84.0565 88.5554L84.2749 87.8699L82.9191 88.266Z" fill="#090604"/>
<path d="M77.2421 66.0662L77.4147 65.5229C76.9425 65.6295 76.4804 65.7615 76.0285 65.9189L75.8203 66.5333L77.2421 66.0662Z" fill="#090604"/>
<path d="M80.0146 68.2293C75.0334 68.2293 70.9966 72.2661 70.9966 77.2474C70.9966 82.2286 75.0334 86.2654 80.0146 86.2654C84.9958 86.2654 89.0326 82.2286 89.0326 77.2474C89.0326 72.2661 84.9958 68.2293 80.0146 68.2293ZM80.0146 85.6154C75.3939 85.6154 71.6465 81.8681 71.6465 77.2474C71.6465 72.6266 75.3939 68.8793 80.0146 68.8793C84.6353 68.8793 88.3827 72.6266 88.3827 77.2474C88.3827 81.8681 84.6353 85.6154 80.0146 85.6154Z" fill="#E2E2E2"/>
<path d="M85.4167 82.6498C88.401 79.6654 88.401 74.8269 85.4167 71.8425C82.4324 68.8582 77.5938 68.8582 74.6094 71.8425C71.6251 74.8269 71.6251 79.6654 74.6094 82.6498C77.5938 85.6341 82.4323 85.6341 85.4167 82.6498Z" fill="#BCBCBC"/>
<path d="M80.0147 83.5132C83.4752 83.5132 86.2806 80.7079 86.2806 77.2473C86.2806 73.7868 83.4752 70.9814 80.0147 70.9814C76.5541 70.9814 73.7488 73.7868 73.7488 77.2473C73.7488 80.7079 76.5541 83.5132 80.0147 83.5132Z" fill="#E2E2E2"/>
<path opacity="0.42" d="M84.2647 77.2067C83.7772 77.1864 83.2897 77.1559 82.8023 77.1864C82.325 77.2169 81.8528 77.288 81.3805 77.3438C80.8981 77.3997 80.4158 77.4403 79.9283 77.3946C79.4662 77.354 79.0042 77.3438 78.5421 77.3591C78.0851 77.3743 77.6281 77.4149 77.166 77.4505C76.9426 77.4657 76.7192 77.486 76.4958 77.4708C76.2927 77.4555 76.0946 77.42 75.8966 77.3794C75.1908 77.2321 74.4444 76.9833 73.7437 77.1661C73.7437 77.1966 73.7437 77.227 73.7437 77.2524C73.7437 80.7154 76.5516 83.5183 80.0095 83.5183C83.4675 83.5183 86.2704 80.7205 86.2754 77.2626C85.6103 77.2677 84.9349 77.2321 84.2647 77.2067Z" fill="black"/>
<path opacity="0.31" d="M80.0146 74.4647C82.4095 74.4647 84.351 73.685 84.351 72.7231C84.351 71.7612 82.4095 70.9814 80.0146 70.9814C77.6197 70.9814 75.6782 71.7612 75.6782 72.7231C75.6782 73.685 77.6197 74.4647 80.0146 74.4647Z" fill="white"/>
<path d="M80.3697 70.6478C80.5581 70.4594 80.5581 70.154 80.3697 69.9656C80.1813 69.7772 79.8759 69.7772 79.6875 69.9656C79.4991 70.154 79.4991 70.4594 79.6875 70.6478C79.8759 70.8362 80.1813 70.8362 80.3697 70.6478Z" fill="#1A1A1A"/>
<path d="M80.4992 84.2699C80.5604 84.0106 80.3999 83.7508 80.1406 83.6896C79.8813 83.6283 79.6215 83.7889 79.5603 84.0482C79.4991 84.3074 79.6596 84.5672 79.9189 84.6285C80.1782 84.6897 80.438 84.5291 80.4992 84.2699Z" fill="#1A1A1A"/>
<path d="M86.9509 77.7093C87.2173 77.7093 87.4333 77.4933 87.4333 77.2269C87.4333 76.9605 87.2173 76.7445 86.9509 76.7445C86.6845 76.7445 86.4685 76.9605 86.4685 77.2269C86.4685 77.4933 86.6845 77.7093 86.9509 77.7093Z" fill="#1A1A1A"/>
<path d="M73.4488 77.5687C73.6372 77.3803 73.6372 77.0749 73.4488 76.8865C73.2604 76.6981 72.955 76.6981 72.7666 76.8865C72.5782 77.0749 72.5782 77.3803 72.7666 77.5687C72.955 77.757 73.2604 77.757 73.4488 77.5687Z" fill="#1A1A1A"/>
<path d="M84.9248 72.8144C85.1912 72.8144 85.4071 72.5984 85.4071 72.332C85.4071 72.0656 85.1912 71.8496 84.9248 71.8496C84.6584 71.8496 84.4424 72.0656 84.4424 72.332C84.4424 72.5984 84.6584 72.8144 84.9248 72.8144Z" fill="#1A1A1A"/>
<path d="M75.135 82.6042C75.4014 82.6042 75.6174 82.3883 75.6174 82.1218C75.6174 81.8554 75.4014 81.6395 75.135 81.6395C74.8686 81.6395 74.6526 81.8554 74.6526 82.1218C74.6526 82.3883 74.8686 82.6042 75.135 82.6042Z" fill="#1A1A1A"/>
<path d="M84.9248 82.6042C85.1912 82.6042 85.4071 82.3883 85.4071 82.1218C85.4071 81.8554 85.1912 81.6395 84.9248 81.6395C84.6584 81.6395 84.4424 81.8554 84.4424 82.1218C84.4424 82.3883 84.6584 82.6042 84.9248 82.6042Z" fill="#1A1A1A"/>
<path d="M75.135 72.8144C75.4014 72.8144 75.6174 72.5985 75.6174 72.3321C75.6174 72.0656 75.4014 71.8497 75.135 71.8497C74.8686 71.8497 74.6526 72.0656 74.6526 72.3321C74.6526 72.5985 74.8686 72.8144 75.135 72.8144Z" fill="#1A1A1A"/>
<path d="M77.8314 70.6463C77.9329 70.8951 77.8162 71.1743 77.5674 71.2759C77.3185 71.3775 77.0393 71.2607 76.9377 71.0119C76.8362 70.7631 76.9529 70.4838 77.2018 70.3822C77.4455 70.2857 77.7248 70.4025 77.8314 70.6463Z" fill="#1A1A1A"/>
<path d="M83.128 83.8035C83.2299 83.5573 83.113 83.2751 82.8669 83.1732C82.6208 83.0712 82.3386 83.1881 82.2366 83.4342C82.1347 83.6804 82.2515 83.9626 82.4977 84.0645C82.7438 84.1665 83.026 84.0496 83.128 83.8035Z" fill="#1A1A1A"/>
<path d="M86.7548 74.923C86.945 74.7365 86.9479 74.4311 86.7614 74.2409C86.5748 74.0507 86.2694 74.0477 86.0792 74.2343C85.889 74.4208 85.8861 74.7262 86.0726 74.9164C86.2592 75.1066 86.5646 75.1096 86.7548 74.923Z" fill="#1A1A1A"/>
<path d="M73.6372 80.36C73.9036 80.36 74.1196 80.1441 74.1196 79.8776C74.1196 79.6112 73.9036 79.3953 73.6372 79.3953C73.3708 79.3953 73.1548 79.6112 73.1548 79.8776C73.1548 80.1441 73.3708 80.36 73.6372 80.36Z" fill="#1A1A1A"/>
<path d="M83.1275 71.0169C83.026 71.2657 82.7416 71.3825 82.4979 71.2809C82.2491 71.1794 82.1323 70.895 82.2339 70.6513C82.3354 70.4025 82.6198 70.2857 82.8635 70.3872C83.1123 70.4888 83.2291 70.7731 83.1275 71.0169Z" fill="#1A1A1A"/>
<path d="M77.8314 83.8077C77.7298 84.0565 77.4455 84.1733 77.2018 84.0717C76.9529 83.9702 76.8362 83.6858 76.9377 83.4421C77.0393 83.1983 77.3236 83.0765 77.5674 83.178C77.8162 83.2745 77.9329 83.5589 77.8314 83.8077Z" fill="#1A1A1A"/>
<path d="M86.7328 80.2554C86.9398 80.0876 86.9715 79.7838 86.8037 79.5769C86.6359 79.3699 86.3322 79.3382 86.1252 79.5059C85.9183 79.6737 85.8865 79.9775 86.0543 80.1845C86.2221 80.3914 86.5259 80.4232 86.7328 80.2554Z" fill="#1A1A1A"/>
<path d="M73.8242 75.0229C74.0703 74.9209 74.1872 74.6388 74.0852 74.3926C73.9833 74.1465 73.7011 74.0296 73.455 74.1316C73.2088 74.2335 73.0919 74.5157 73.1939 74.7618C73.2958 75.008 73.578 75.1249 73.8242 75.0229Z" fill="#1A1A1A"/>
<path d="M93.9987 76.5719L93.1913 76.5668L92.8663 75.47L89.5455 64.2432L89.0631 62.6183H86.0013H80.2685L43.6684 62.6285L38.9258 76.2977H38.3013L43.2216 62.0649H89.6369L90.5154 64.9947L93.6686 75.4751L93.9987 76.5719Z" fill="#8E8E8E"/>
<path opacity="0.64" d="M42.1299 67.0613L48.8934 64.3955H89.5862L89.0632 62.6183L43.6684 62.6285L42.1299 67.0613Z" fill="black"/>
<path opacity="0.43" d="M147.508 71.7582V62.0699H161.304V79.1158L147.508 71.7582Z" fill="black"/>
<path opacity="0.64" d="M90.7436 65.7564L95.6183 64.0909H147.507L161.298 68.082L161.304 62.07L89.6367 62.0649L90.7436 65.7564Z" fill="black"/>
<path opacity="0.64" d="M19.6506 69.6053H35.747L38.7174 63.3495H42.7745L43.2214 62.0649L37.5293 62.07L34.4217 68.28H19.6506V69.6053Z" fill="black"/>
<path d="M107.901 62.6183V74.556C107.901 75.3126 108.516 75.927 109.272 75.927H141.11C141.866 75.927 142.481 75.3126 142.481 74.556V62.6183H107.901Z" fill="#FFBC00"/>
<path opacity="0.37" d="M112.395 63.4562C111.715 63.4562 111.121 63.6745 110.811 63.9944L109.303 63.9639C109.049 63.9589 108.846 64.162 108.846 64.4159V64.5073V64.5225V64.6139C108.846 64.8678 109.054 65.0709 109.303 65.0658L110.811 65.0353C111.121 65.3552 111.715 65.5736 112.395 65.5736C113.4 65.5736 114.213 65.1014 114.213 64.5174C114.213 63.9335 113.4 63.4562 112.395 63.4562Z" fill="black"/>
<path d="M113.604 64.1164L109.76 64.0351C109.541 64.0301 109.359 64.2078 109.359 64.4261V64.5074V64.5226V64.6038C109.359 64.8222 109.541 64.9999 109.76 64.9948L113.604 64.9136C113.817 64.9085 113.99 64.7359 113.99 64.5226V64.5074C113.99 64.2941 113.817 64.1215 113.604 64.1164Z" fill="#CECECE"/>
<path d="M110.176 64.5124C110.176 64.6444 110.069 64.751 109.937 64.751C109.805 64.751 109.699 64.6444 109.699 64.5124C109.699 64.3804 109.805 64.2737 109.937 64.2737C110.069 64.2737 110.176 64.3804 110.176 64.5124Z" fill="#A8A8A8"/>
<path opacity="0.37" d="M196.04 46.5322C195.152 46.5322 194.375 46.8165 193.968 47.238L191.993 47.1973C191.663 47.1923 191.394 47.4563 191.394 47.7864V47.9082V47.9336V48.0555C191.394 48.3855 191.663 48.6496 191.993 48.6445L193.968 48.6039C194.375 49.0253 195.152 49.3097 196.04 49.3097C197.355 49.3097 198.417 48.6902 198.417 47.9285C198.417 47.1516 197.35 46.5322 196.04 46.5322Z" fill="black"/>
<path d="M197.619 47.3953L192.592 47.2886C192.303 47.2836 192.069 47.5121 192.069 47.8015V47.9081V47.9284V48.0351C192.069 48.3245 192.308 48.553 192.592 48.5479L197.619 48.4413C197.899 48.4362 198.122 48.2077 198.122 47.9284V47.9081C198.122 47.6288 197.899 47.4004 197.619 47.3953Z" fill="#CECECE"/>
<path d="M192.826 48.223C192.997 48.223 193.136 48.0843 193.136 47.9132C193.136 47.7422 192.997 47.6035 192.826 47.6035C192.655 47.6035 192.516 47.7422 192.516 47.9132C192.516 48.0843 192.655 48.223 192.826 48.223Z" fill="#A8A8A8"/>
<path d="M169.824 62.0699L163.898 59.1401V62.0699H169.824Z" fill="#3D423E"/>
<path d="M182.584 31.2229H174.221C173.201 31.2229 172.373 32.0505 172.373 33.0711V41.4341C172.373 42.4547 173.201 43.2824 174.221 43.2824H182.584C183.605 43.2824 184.433 42.4547 184.433 41.4341V33.0711C184.433 32.0505 183.605 31.2229 182.584 31.2229Z" fill="#8DBFE2"/>
<path opacity="0.4" d="M176.425 31.2229L172.373 35.2698V37.3821L178.537 31.2229H176.425Z" fill="white"/>
<path opacity="0.4" d="M184.433 33.0711C184.433 32.0505 183.605 31.2229 182.584 31.2229H180.65L172.378 39.4944V41.4291C172.378 42.4497 173.206 43.2773 174.226 43.2773H177.131L184.438 35.9705V33.0711H184.433Z" fill="white"/>
<path d="M182.584 43.5007H174.221C173.079 43.5007 172.155 42.5715 172.155 41.4341V33.0711C172.155 31.9286 173.084 31.0045 174.221 31.0045H182.584C183.727 31.0045 184.651 31.9337 184.651 33.0711V41.4341C184.651 42.5715 183.727 43.5007 182.584 43.5007ZM174.221 31.4412C173.323 31.4412 172.591 32.1724 172.591 33.0711V41.4341C172.591 42.3329 173.323 43.0641 174.221 43.0641H182.584C183.483 43.0641 184.214 42.3329 184.214 41.4341V33.0711C184.214 32.1724 183.483 31.4412 182.584 31.4412H174.221Z" fill="#969696"/>
<path d="M189.972 31.0045L190.8 44.6889H208.019L206.876 31.0045H189.972Z" fill="#8DBFE2"/>
<path opacity="0.4" d="M195.416 31.0045H194.36L190.221 35.1428L190.282 36.1381L195.416 31.0045Z" fill="white"/>
<path opacity="0.4" d="M203.403 31.0045H198.32L190.45 38.875L190.739 43.6683L203.403 31.0045Z" fill="white"/>
<path opacity="0.4" d="M206.876 31.0045H205.911L192.227 44.6889H198.498L207.287 35.8994L206.876 31.0045Z" fill="white"/>
<path d="M215.32 74.8099C216.326 74.8099 217.138 75.6223 217.138 76.6277V78.8619C217.138 79.8673 216.326 80.6797 215.32 80.6797H206.064V74.8099H215.32Z" fill="#BCBCBC"/>
<path d="M206.064 74.8099H215.325C216.305 74.8099 217.103 75.5817 217.143 76.5515H206.064V74.8099Z" fill="#EDEDED"/>
<path d="M206.064 76.5516H217.138C217.138 76.577 217.138 76.6024 217.138 76.6278V76.8614H206.064V76.5516Z" fill="#4C4C4C"/>
<path d="M217.143 78.4659H206.064V78.7808H217.143V78.4659Z" fill="#D3D3D3"/>
<path d="M217.143 78.7858V78.8619C217.143 79.8673 216.331 80.6798 215.325 80.6798H206.064V78.7807H217.143V78.7858Z" fill="#8E8E8E"/>
<path opacity="0.35" d="M210.395 50.2084L209.846 43.7191L208.643 29.4051L205.277 29.4304L188.19 29.5523L189.388 47.5782L190.12 58.607H169.824V59.003H190.313C190.546 59.0437 193.506 59.5971 196.66 61.5724C198.02 62.4254 199.544 63.6237 200.9 65.2842H211.664L210.395 50.2084ZM201.011 64.7865C199.854 63.4308 198.467 62.2375 196.873 61.2372C193.958 59.4143 191.196 58.7745 190.521 58.6374L189.795 47.695L188.617 29.9433L205.327 29.8214L208.283 29.8011L209.461 43.7953L209.999 50.2034L211.228 64.7815H201.011V64.7865Z" fill="#3D423E"/>
<path d="M206.064 74.4189V65.9036H213.533L214.889 65.0658V74.4189H206.064Z" fill="#E0E0E0"/>
<path d="M162.517 63.5272V77.7448H170.352C170.352 77.7448 172.302 65.9899 182.066 63.5272H162.517Z" fill="#FFBC00"/>
<path d="M208.262 44.9123H190.597L189.739 30.7861H207.079L208.262 44.9123ZM191.008 44.4706H207.78L206.673 31.2228H190.206L191.008 44.4706Z" fill="#969696"/>
<path opacity="0.64" d="M25.4646 72.7229C25.4646 73.8095 25.0076 74.7895 24.2764 75.4801H19.6506V69.5138C20.2346 69.1431 20.9302 68.9299 21.6716 68.9299C23.7687 68.9299 25.4646 70.6258 25.4646 72.7229Z" fill="black"/>
<path d="M19.2293 71.6312L14.5222 78.7045V83.7873H16.8732V78.8822L21.7732 71.9054L19.2293 71.6312Z" fill="#161616"/>
<path d="M16.8733 83.7873L21.2858 81.6953V76.7902L18.488 75.1755L18.6302 76.3789L16.8733 78.8822V83.7873Z" fill="#0C0C0C"/>
<path d="M20.6156 76.9425C22.7104 76.9425 24.4086 75.2443 24.4086 73.1494C24.4086 71.0546 22.7104 69.3564 20.6156 69.3564C18.5207 69.3564 16.8225 71.0546 16.8225 73.1494C16.8225 75.2443 18.5207 76.9425 20.6156 76.9425Z" fill="#2B2B2B"/>
<path d="M20.6155 75.6172C21.9784 75.6172 23.0832 74.5124 23.0832 73.1495C23.0832 71.7866 21.9784 70.6817 20.6155 70.6817C19.2526 70.6817 18.1477 71.7866 18.1477 73.1495C18.1477 74.5124 19.2526 75.6172 20.6155 75.6172Z" fill="#161616"/>
<path d="M168.356 66.508C168.052 66.381 167.798 66.2896 167.575 66.2236C166.935 66.0357 166.589 66.0967 166.32 66.4013C166.082 66.6654 165.467 67.6403 165.467 67.6403L166.432 68.3207C166.432 68.3207 166.777 67.427 167.331 66.8888C167.62 66.5994 167.971 66.4166 168.356 66.508Z" fill="white"/>
<path d="M169.326 67.3408C168.996 66.8737 168.682 66.6452 168.387 66.5741C168.001 66.4827 167.651 66.6655 167.361 66.9498L168.291 68.0822L167.889 68.3665L169.225 68.4935L169.646 67.1123L169.326 67.3408Z" fill="white"/>
<path d="M164.482 69.8998C164.492 70.2299 164.518 70.499 164.548 70.7275C164.645 71.3876 164.843 71.672 165.234 71.7938C165.574 71.9005 166.716 72.0528 166.716 72.0528L166.93 70.89C166.93 70.89 165.975 70.9509 165.249 70.6717C164.873 70.5295 164.558 70.2908 164.482 69.8998Z" fill="white"/>
<path d="M164.833 68.671C164.543 69.1636 164.467 69.5495 164.528 69.844C164.604 70.235 164.919 70.4736 165.295 70.6209L165.934 69.3057L166.361 69.5495L165.919 68.28L164.487 68.473L164.833 68.671Z" fill="white"/>
<path d="M169.286 71.5807C169.55 71.3877 169.763 71.2151 169.936 71.0577C170.428 70.6057 170.55 70.2808 170.433 69.8898C170.332 69.5496 169.819 68.5188 169.819 68.5188L168.737 68.991C168.737 68.991 169.326 69.7476 169.499 70.5042C169.585 70.9002 169.565 71.2963 169.286 71.5807Z" fill="white"/>
<path d="M168.067 71.9767C168.636 71.9361 168.996 71.7838 169.209 71.5705C169.489 71.2861 169.514 70.8952 169.423 70.4991L167.976 70.7073L167.94 70.2198L167.138 71.2963L168.102 72.3728L168.067 71.9767Z" fill="white"/>
<path opacity="0.35" d="M213.665 66.782H207.287C207.054 66.782 206.871 66.9699 206.871 67.1984C206.871 67.4269 207.059 67.6148 207.287 67.6148H213.665C213.899 67.6148 214.081 67.4269 214.081 67.1984C214.081 66.9699 213.894 66.782 213.665 66.782Z" fill="#3D423E"/>
<path opacity="0.35" d="M213.665 68.4374H207.287C207.054 68.4374 206.871 68.6253 206.871 68.8537C206.871 69.0822 207.059 69.2701 207.287 69.2701H213.665C213.899 69.2701 214.081 69.0822 214.081 68.8537C214.081 68.6253 213.894 68.4374 213.665 68.4374Z" fill="#3D423E"/>
<path opacity="0.35" d="M213.665 70.0876H207.287C207.054 70.0876 206.871 70.2755 206.871 70.504C206.871 70.7376 207.059 70.9204 207.287 70.9204H213.665C213.899 70.9204 214.081 70.7325 214.081 70.504C214.081 70.2755 213.894 70.0876 213.665 70.0876Z" fill="#3D423E"/>
<path opacity="0.35" d="M213.665 71.743H207.287C207.054 71.743 206.871 71.9309 206.871 72.1594C206.871 72.3878 207.059 72.5757 207.287 72.5757H213.665C213.899 72.5757 214.081 72.3878 214.081 72.1594C214.081 71.9309 213.894 71.743 213.665 71.743Z" fill="#3D423E"/>
<path d="M186.743 47.9539H172.566L173.653 47.0653H185.87L186.743 47.9539Z" fill="#EDEDED"/>
<path d="M185.87 47.0654H173.653L173.251 47.3904H186.195L185.87 47.0654Z" fill="white"/>
<path d="M186.743 47.954H172.566V48.1418H186.743V47.954Z" fill="#969696"/>
<path d="M186.743 49.6498H172.566L173.653 48.7612H185.87L186.743 49.6498Z" fill="#EDEDED"/>
<path d="M185.87 48.7612H173.653L173.251 49.0913H186.195L185.87 48.7612Z" fill="white"/>
<path d="M186.743 49.6498H172.566V49.8377H186.743V49.6498Z" fill="#969696"/>
<path d="M186.743 51.3458H172.566L173.653 50.4572H185.87L186.743 51.3458Z" fill="#EDEDED"/>
<path d="M185.87 50.4571H173.653L173.251 50.7871H186.195L185.87 50.4571Z" fill="white"/>
<path d="M186.743 51.3457H172.566V51.5336H186.743V51.3457Z" fill="#969696"/>
<path d="M186.743 53.0468H172.566L173.653 52.1582H185.87L186.743 53.0468Z" fill="#EDEDED"/>
<path d="M185.87 52.1583H173.653L173.251 52.4833H186.195L185.87 52.1583Z" fill="white"/>
<path d="M186.743 53.0469H172.566V53.2348H186.743V53.0469Z" fill="#969696"/>
<path d="M186.743 54.7428H172.566L173.653 53.8542H185.87L186.743 54.7428Z" fill="#EDEDED"/>
<path d="M185.87 53.8541H173.653L173.251 54.1842H186.195L185.87 53.8541Z" fill="white"/>
<path d="M186.743 54.7427H172.566V54.9306H186.743V54.7427Z" fill="#969696"/>
<path d="M186.743 56.4387H172.566L173.653 55.5501H185.87L186.743 56.4387Z" fill="#EDEDED"/>
<path d="M185.87 55.5502H173.653L173.251 55.8803H186.195L185.87 55.5502Z" fill="white"/>
<path d="M186.743 56.4388H172.566V56.6267H186.743V56.4388Z" fill="#969696"/>
<defs>
<radialGradient id="paint0_radial_19625_395" cx="0" cy="0" r="1" gradientUnits="userSpaceOnUse" gradientTransform="translate(187.147 79.5167) scale(7.75747 7.75748)">
<stop offset="0.7621" stop-color="#4E483E"/>
<stop offset="1" stop-color="#0D0A08"/>
</radialGradient>
<radialGradient id="paint1_radial_19625_395" cx="0" cy="0" r="1" gradientUnits="userSpaceOnUse" gradientTransform="translate(187.147 79.5167) scale(6.7868 6.78679)">
<stop offset="0.8176" stop-color="#4D4D4D"/>
<stop offset="0.8564" stop-color="#434343"/>
<stop offset="0.9227" stop-color="#282828"/>
<stop offset="1"/>
</radialGradient>
<radialGradient id="paint2_radial_19625_395" cx="0" cy="0" r="1" gradientUnits="userSpaceOnUse" gradientTransform="translate(54.0762 77.247) scale(9.5656)">
<stop offset="0.7621" stop-color="#4E483E"/>
<stop offset="1" stop-color="#0D0A08"/>
</radialGradient>
<radialGradient id="paint3_radial_19625_395" cx="0" cy="0" r="1" gradientUnits="userSpaceOnUse" gradientTransform="translate(54.0761 77.2471) scale(8.36868 8.36868)">
<stop offset="0.8176" stop-color="#4D4D4D"/>
<stop offset="0.8564" stop-color="#434343"/>
<stop offset="0.9227" stop-color="#282828"/>
<stop offset="1"/>
</radialGradient>
<radialGradient id="paint4_radial_19625_395" cx="0" cy="0" r="1" gradientUnits="userSpaceOnUse" gradientTransform="translate(80.0131 77.247) scale(9.5656 9.5656)">
<stop offset="0.7621" stop-color="#4E483E"/>
<stop offset="1" stop-color="#0D0A08"/>
</radialGradient>
<radialGradient id="paint5_radial_19625_395" cx="0" cy="0" r="1" gradientUnits="userSpaceOnUse" gradientTransform="translate(80.013 77.2471) scale(8.36867 8.36868)">
<stop offset="0.8176" stop-color="#4D4D4D"/>
<stop offset="0.8564" stop-color="#434343"/>
<stop offset="0.9227" stop-color="#282828"/>
<stop offset="1"/>
</radialGradient>
</defs>
</svg>
