<svg width="268" height="268" viewBox="0 0 268 268" fill="none" xmlns="http://www.w3.org/2000/svg">
<path d="M134 258C65.6262 258 10 202.374 10 134C10 65.6262 65.6262 10 134 10C202.374 10 258 65.6262 258 134C258 202.374 202.374 258 134 258Z" fill="#CA9500"/>
<path d="M134 20C71.1402 20 20 71.1402 20 134C20 196.86 71.1402 248 134 248C196.86 248 248 196.86 248 134C248 71.1402 196.86 20 134 20ZM134 0C208.006 0 268 59.9938 268 134C268 208.006 208.006 268 134 268C59.9938 268 0 208.006 0 134C0 59.9938 59.9938 0 134 0Z" fill="white"/>
<path d="M185.514 93.655C184.221 93.521 153.714 90.579 142.75 105.355C137.918 111.862 137.684 120.68 142.021 131.562C137.969 138.228 134.294 147.079 131.849 158.83C130.324 147.541 126.871 136.598 121.64 126.479C123.84 123.351 132.214 110.279 126.687 99.157C121.62 88.963 106.533 83.822 81.8269 84.005C81.3669 84.0079 80.9256 84.1873 80.5941 84.5063C80.2627 84.8253 80.0664 85.2594 80.0459 85.719C79.9849 87.119 78.7219 120.019 94.4159 129.843C97.3471 131.666 100.739 132.611 104.191 132.565C108.538 132.565 113.391 131.237 118.707 128.608C128.762 147.942 129.598 167.85 129.341 176.925C129.208 178.612 129.098 180.346 129.012 182.125C128.989 182.588 129.147 183.041 129.451 183.39C129.756 183.74 130.183 183.957 130.645 183.998C130.699 183.998 130.751 184.005 130.805 184.005C131.241 184.003 131.661 183.843 131.988 183.555C132.314 183.267 132.526 182.87 132.582 182.438C132.593 182.345 132.815 180.471 132.911 177.285C134.473 157.334 139.211 143.716 144.684 134.445C147.984 136.674 155.452 141.045 163.345 141.045C166.105 141.072 168.835 140.475 171.332 139.298C181.532 134.424 186.845 119.678 187.124 95.469C187.132 95.0199 186.97 94.5844 186.672 94.2485C186.374 93.9126 185.961 93.7008 185.514 93.655ZM96.3219 126.806C84.2669 119.261 83.5599 94.365 83.5969 87.589C105.461 87.697 119.233 92.233 123.471 100.742C127.479 108.791 122.311 118.733 119.671 122.942C115.069 115.093 109.194 108.063 102.285 102.142C101.922 101.846 101.459 101.704 100.993 101.746C100.527 101.787 100.096 102.009 99.7909 102.364C99.4864 102.719 99.3326 103.179 99.3625 103.646C99.3924 104.113 99.6036 104.55 99.9509 104.863C106.762 110.707 112.523 117.675 116.983 125.463C108.51 129.628 101.565 130.084 96.3229 126.806H96.3219ZM169.795 136.049C161.134 140.194 150.445 133.981 146.604 131.4C156.031 117.447 166.711 115.155 166.96 115.107C167.192 115.065 167.413 114.978 167.611 114.85C167.809 114.723 167.98 114.558 168.114 114.364C168.248 114.171 168.343 113.953 168.393 113.723C168.443 113.492 168.447 113.255 168.405 113.023C168.363 112.791 168.276 112.57 168.148 112.372C168.021 112.174 167.856 112.003 167.662 111.869C167.469 111.735 167.251 111.64 167.02 111.59C166.79 111.54 166.553 111.536 166.321 111.578C165.521 111.723 154.401 113.978 144.469 127.859C141.548 119.324 141.926 112.479 145.627 107.492C154.042 96.152 177.152 96.717 183.51 97.1C183.04 118.521 178.307 131.973 169.795 136.044V136.049Z" fill="white"/>
</svg>
