<svg width="268" height="268" viewBox="0 0 268 268" fill="none" xmlns="http://www.w3.org/2000/svg">
<g clip-path="url(#clip0_1_140)">
<path d="M134 268C208.006 268 268 208.006 268 134C268 59.9938 208.006 0 134 0C59.9938 0 0 59.9938 0 134C0 208.006 59.9938 268 134 268Z" fill="#CA9500"/>
<path d="M134 258C202.483 258 258 202.483 258 134C258 65.5167 202.483 10 134 10C65.5167 10 10 65.5167 10 134C10 202.483 65.5167 258 134 258Z" stroke="white" stroke-width="20"/>
<path d="M159.909 172.853C159.787 168.988 158.858 166.341 157.12 165.009C156.67 164.658 156.155 164.4 155.604 164.252C155.053 164.103 154.477 164.066 153.912 164.144H135.358V160.544C136.637 160.539 137.862 160.027 138.765 159.121C139.669 158.216 140.176 156.989 140.178 155.71V148.102H161.239C161.716 148.102 162.174 147.912 162.512 147.575C162.849 147.237 163.039 146.779 163.039 146.302V136.871C163.038 135.419 162.461 134.026 161.434 132.999C160.407 131.971 159.015 131.394 157.562 131.392H156.975V89.456C156.973 88.0096 156.398 86.6229 155.375 85.6001C154.352 84.5773 152.966 84.0018 151.519 84H116.369C114.923 84.0018 113.536 84.5773 112.513 85.6001C111.49 86.6229 110.915 88.0096 110.913 89.456V131.394H109.547C108.095 131.396 106.702 131.973 105.675 133.001C104.648 134.028 104.07 135.42 104.069 136.873V146.304C104.069 146.781 104.259 147.239 104.596 147.577C104.934 147.914 105.392 148.104 105.869 148.104H126.775V155.712C126.776 156.994 127.286 158.223 128.192 159.129C129.098 160.036 130.327 160.546 131.609 160.548H131.753V164.142H113.98C113.414 164.064 112.839 164.101 112.288 164.25C111.737 164.399 111.221 164.656 110.771 165.008C109.039 166.335 108.111 168.969 107.983 172.808C106.687 173.223 105.581 174.086 104.864 175.243C104.146 176.399 103.864 177.773 104.068 179.119C104.271 180.464 104.947 181.693 105.975 182.586C107.002 183.478 108.314 183.976 109.675 183.989C111.035 184.002 112.356 183.53 113.401 182.658C114.446 181.786 115.145 180.57 115.375 179.229C115.605 177.887 115.349 176.508 114.654 175.338C113.96 174.168 112.871 173.283 111.583 172.843C111.707 169.388 112.525 168.243 112.896 167.917C112.979 167.843 113.073 167.783 113.175 167.74H113.549C113.614 167.746 113.679 167.74 113.801 167.74H131.753V172.853C130.461 173.281 129.363 174.155 128.657 175.318C127.95 176.482 127.681 177.859 127.898 179.202C128.115 180.546 128.803 181.769 129.839 182.652C130.875 183.534 132.192 184.019 133.553 184.019C134.914 184.019 136.231 183.534 137.267 182.652C138.303 181.769 138.991 180.546 139.208 179.202C139.425 177.859 139.156 176.482 138.449 175.318C137.743 174.155 136.645 173.281 135.353 172.853V167.74H154.081C154.261 167.74 154.261 167.766 154.346 167.74H154.697C154.803 167.779 154.9 167.839 154.984 167.915C155.356 168.243 156.177 169.39 156.298 172.86C155.007 173.293 153.912 174.171 153.209 175.338C152.507 176.505 152.243 177.884 152.465 179.228C152.687 180.571 153.38 181.792 154.42 182.671C155.46 183.55 156.78 184.03 158.141 184.025C159.503 184.02 160.819 183.529 161.852 182.642C162.886 181.755 163.569 180.529 163.781 179.184C163.992 177.838 163.718 176.461 163.006 175.3C162.295 174.139 161.193 173.269 159.898 172.846L159.909 172.853ZM153.376 117.828H114.515V114.2H153.373L153.376 117.828ZM114.518 121.428H153.376V125.058H114.515L114.518 121.428ZM116.371 87.6H151.523C152.014 87.6011 152.485 87.7966 152.832 88.1439C153.179 88.4912 153.375 88.9619 153.376 89.453V110.593H114.515V89.453C114.517 88.9621 114.713 88.4919 115.06 88.1452C115.408 87.7985 115.878 87.6035 116.369 87.603L116.371 87.6ZM114.518 128.661H153.376V131.391H114.515L114.518 128.661ZM107.674 136.87C107.674 136.373 107.872 135.896 108.223 135.544C108.575 135.192 109.052 134.995 109.549 134.994H157.567C158.064 134.995 158.541 135.193 158.892 135.544C159.243 135.896 159.441 136.373 159.441 136.87V144.499H107.672L107.674 136.87ZM130.381 155.71V148.102H136.581V155.71C136.581 156.036 136.451 156.349 136.221 156.58C135.99 156.811 135.677 156.941 135.351 156.942H131.609C131.283 156.941 130.971 156.812 130.741 156.582C130.51 156.352 130.38 156.04 130.379 155.714L130.381 155.71ZM109.731 180.364C109.311 180.364 108.9 180.239 108.55 180.006C108.2 179.772 107.928 179.44 107.767 179.052C107.606 178.663 107.564 178.236 107.646 177.823C107.728 177.411 107.93 177.032 108.228 176.735C108.525 176.437 108.904 176.235 109.316 176.153C109.729 176.071 110.156 176.113 110.545 176.274C110.933 176.435 111.265 176.707 111.499 177.057C111.732 177.406 111.857 177.818 111.857 178.238C111.857 178.518 111.802 178.795 111.696 179.053C111.589 179.311 111.432 179.546 111.234 179.744C111.037 179.942 110.802 180.099 110.544 180.206C110.286 180.313 110.009 180.368 109.729 180.368L109.731 180.364ZM133.558 180.393C133.138 180.393 132.726 180.269 132.377 180.035C132.027 179.802 131.754 179.47 131.593 179.081C131.432 178.693 131.39 178.265 131.472 177.853C131.554 177.44 131.756 177.061 132.053 176.764C132.351 176.467 132.729 176.264 133.142 176.182C133.554 176.1 133.982 176.142 134.37 176.303C134.759 176.464 135.091 176.736 135.325 177.086C135.558 177.435 135.683 177.846 135.683 178.267C135.683 178.831 135.459 179.373 135.061 179.772C134.662 180.172 134.121 180.396 133.556 180.397L133.558 180.393ZM158.132 180.393C157.712 180.393 157.3 180.269 156.951 180.035C156.601 179.802 156.328 179.47 156.167 179.081C156.006 178.693 155.964 178.265 156.046 177.853C156.128 177.44 156.33 177.061 156.627 176.764C156.925 176.467 157.304 176.264 157.716 176.182C158.128 176.1 158.556 176.142 158.944 176.303C159.333 176.464 159.665 176.736 159.899 177.086C160.132 177.435 160.257 177.846 160.257 178.267C160.257 178.547 160.203 178.823 160.096 179.082C159.989 179.34 159.832 179.575 159.635 179.773C159.437 179.97 159.203 180.127 158.945 180.235C158.686 180.342 158.41 180.397 158.13 180.397L158.132 180.393Z" fill="white"/>
</g>
<defs>
<clipPath id="clip0_1_140">
<rect width="268" height="268" fill="white"/>
</clipPath>
</defs>
</svg>
