<svg width="268" height="268" viewBox="0 0 268 268" fill="none" xmlns="http://www.w3.org/2000/svg">
<path d="M134 258C65.6262 258 10 202.374 10 134C10 65.6262 65.6262 10 134 10C202.374 10 258 65.6262 258 134C258 202.374 202.374 258 134 258Z" fill="#CA9500"/>
<path d="M134 20C71.1402 20 20 71.1402 20 134C20 196.86 71.1402 248 134 248C196.86 248 248 196.86 248 134C248 71.1402 196.86 20 134 20ZM134 0C208.006 0 268 59.9938 268 134C268 208.006 208.006 268 134 268C59.9938 268 0 208.006 0 134C0 59.9938 59.9938 0 134 0Z" fill="white"/>
<path d="M189.521 119.767L174.671 85.092C174.532 84.7678 174.301 84.4914 174.007 84.2973C173.713 84.1032 173.368 83.9998 173.015 84H94.65C94.2973 83.9998 93.9524 84.1032 93.658 84.2973C93.3636 84.4914 93.1327 84.7678 92.994 85.092L78.145 119.767C78.0274 120.041 77.9797 120.34 78.0061 120.637C78.0326 120.934 78.1324 121.219 78.2966 121.468C78.4607 121.717 78.6842 121.921 78.9467 122.062C79.2093 122.204 79.5028 122.277 79.801 122.277H86.909V182.198C86.909 182.675 87.0986 183.133 87.4362 183.471C87.7737 183.808 88.2316 183.998 88.709 183.998H178.953C179.189 183.998 179.423 183.951 179.642 183.861C179.86 183.771 180.059 183.638 180.226 183.471C180.393 183.304 180.525 183.105 180.616 182.887C180.706 182.668 180.753 182.434 180.753 182.198V122.277H187.861C188.159 122.277 188.453 122.204 188.715 122.062C188.978 121.921 189.201 121.717 189.365 121.468C189.53 121.219 189.629 120.934 189.656 120.637C189.682 120.34 189.635 120.041 189.517 119.767H189.521ZM104.357 180.397V138.042H124.213V180.394L104.357 180.397ZM177.157 180.397H127.816V136.242C127.816 135.765 127.626 135.307 127.289 134.969C126.951 134.632 126.493 134.442 126.016 134.442H102.555C102.078 134.442 101.62 134.632 101.282 134.969C100.945 135.307 100.755 135.765 100.755 136.242V180.396H90.513V122.276H177.153L177.157 180.397ZM178.957 118.674H82.533L95.84 87.603H171.827L185.132 118.674H178.957Z" fill="white"/>
<path d="M142.716 157.076H162.247C162.645 157.076 163.026 156.918 163.308 156.637C163.589 156.355 163.747 155.974 163.747 155.576V138.606C163.747 138.208 163.589 137.827 163.308 137.545C163.026 137.264 162.645 137.106 162.247 137.106H142.716C142.318 137.106 141.937 137.264 141.655 137.545C141.374 137.827 141.216 138.208 141.216 138.606V155.576C141.216 155.974 141.374 156.355 141.655 156.637C141.937 156.918 142.318 157.076 142.716 157.076ZM144.216 140.106H160.747V154.076H144.216V140.106Z" fill="white"/>
</svg>
