<svg width="268" height="268" viewBox="0 0 268 268" fill="none" xmlns="http://www.w3.org/2000/svg">
<path d="M134 258C65.6262 258 10 202.374 10 134C10 65.6262 65.6262 10 134 10C202.374 10 258 65.6262 258 134C258 202.374 202.374 258 134 258Z" fill="#CA9500"/>
<path d="M134 20C71.1402 20 20 71.1402 20 134C20 196.86 71.1402 248 134 248C196.86 248 248 196.86 248 134C248 71.1402 196.86 20 134 20ZM134 0C208.006 0 268 59.9938 268 134C268 208.006 208.006 268 134 268C59.9938 268 0 208.006 0 134C0 59.9938 59.9938 0 134 0Z" fill="white"/>
<path d="M190.411 93.371H163.811V85.802C163.811 85.3246 163.621 84.8668 163.284 84.5292C162.946 84.1916 162.488 84.002 162.011 84.002H105.211C104.734 84.002 104.276 84.1916 103.938 84.5292C103.601 84.8668 103.411 85.3246 103.411 85.802V93.371H76.811C76.5746 93.371 76.3405 93.4176 76.1221 93.508C75.9038 93.5985 75.7053 93.7311 75.5382 93.8982C75.371 94.0654 75.2385 94.2638 75.148 94.4822C75.0575 94.7006 75.011 94.9346 75.011 95.171V182.196C75.011 182.673 75.2006 183.131 75.5382 183.469C75.8758 183.806 76.3336 183.996 76.811 183.996H94.211C94.4474 183.996 94.6814 183.949 94.8998 183.859C95.1182 183.769 95.3166 183.636 95.4838 183.469C95.6509 183.302 95.7835 183.103 95.874 182.885C95.9644 182.666 96.011 182.432 96.011 182.196V163.534H103.404V182.198C103.404 182.675 103.594 183.133 103.931 183.471C104.269 183.808 104.727 183.998 105.204 183.998H128.104C128.581 183.998 129.039 183.808 129.377 183.471C129.714 183.133 129.904 182.675 129.904 182.198V163.534H137.298V182.198C137.298 182.675 137.488 183.133 137.825 183.471C138.163 183.808 138.621 183.998 139.098 183.998H161.998C162.475 183.998 162.933 183.808 163.271 183.471C163.608 183.133 163.798 182.675 163.798 182.198V163.534H171.19V182.198C171.19 182.675 171.38 183.133 171.717 183.471C172.055 183.808 172.513 183.998 172.99 183.998H190.39C190.867 183.998 191.325 183.808 191.663 183.471C192 183.133 192.19 182.675 192.19 182.198V95.173C192.191 94.6989 192.004 94.2437 191.671 93.9063C191.338 93.5689 190.885 93.3765 190.411 93.371ZM94.211 159.93C93.7336 159.93 93.2758 160.12 92.9382 160.457C92.6006 160.795 92.411 161.253 92.411 161.73V180.394H78.611V96.974H103.411V159.928L94.211 159.93ZM160.211 180.396H140.911V161.732C140.911 161.255 140.721 160.797 140.384 160.459C140.046 160.122 139.588 159.932 139.111 159.932H128.111C127.634 159.932 127.176 160.122 126.838 160.459C126.501 160.797 126.311 161.255 126.311 161.732V180.396H107.011V87.604H160.211V180.395V180.396ZM188.611 180.396H174.811V161.732C174.811 161.255 174.621 160.797 174.284 160.459C173.946 160.122 173.488 159.932 173.011 159.932H163.817V96.975H188.617L188.611 180.396Z" fill="white"/>
<path d="M128.037 101.621H119.6V110.058H128.037V101.621Z" fill="white"/>
<path d="M147.37 101.621H138.933V110.058H147.37V101.621Z" fill="white"/>
<path d="M128.037 120.67H119.6V129.107H128.037V120.67Z" fill="white"/>
<path d="M147.37 120.67H138.933V129.107H147.37V120.67Z" fill="white"/>
<path d="M128.037 139.72H119.6V148.157H128.037V139.72Z" fill="white"/>
<path d="M147.37 139.72H138.933V148.157H147.37V139.72Z" fill="white"/>
<path d="M182.255 108.832H173.818V117.269H182.255V108.832Z" fill="white"/>
<path d="M182.255 126.376H173.818V134.813H182.255V126.376Z" fill="white"/>
<path d="M182.255 143.92H173.818V152.357H182.255V143.92Z" fill="white"/>
<path d="M93.394 108.832H84.957V117.269H93.394V108.832Z" fill="white"/>
<path d="M93.394 126.376H84.957V134.813H93.394V126.376Z" fill="white"/>
<path d="M93.394 143.92H84.957V152.357H93.394V143.92Z" fill="white"/>
</svg>
