<svg width="83" height="39" viewBox="0 0 83 39" fill="none" xmlns="http://www.w3.org/2000/svg">
<path d="M79.75 20.321H52.6V2.25099C52.5877 1.64183 52.3341 1.06246 51.8951 0.640056C51.456 0.217653 50.8672 -0.0132693 50.258 -0.00201822H2.34103C1.73186 -0.0132693 1.1431 0.217653 0.70401 0.640056C0.264921 1.06246 0.0113701 1.64183 -0.000976562 2.25099V22.995C0.0113701 23.6041 0.264921 24.1835 0.70401 24.6059C1.1431 25.0283 1.73186 25.2592 2.34103 25.248H9.60205C10.8551 16.665 19.102 10.684 28.028 11.889C31.4792 12.3067 34.7007 13.836 37.2061 16.246C39.7115 18.6559 41.3647 21.8156 41.916 25.248H79.749C80.3582 25.2592 80.947 25.0283 81.386 24.6059C81.8251 24.1835 82.0787 23.6041 82.091 22.995V22.574C82.0787 21.965 81.8253 21.3858 81.3864 20.9634C80.9475 20.541 80.359 20.31 79.75 20.321ZM25.76 16.237C22.7141 16.1791 19.7699 17.333 17.5743 19.4449C15.3787 21.5569 14.1114 24.4541 14.051 27.5C14.1114 30.5458 15.3787 33.4431 17.5743 35.555C19.7699 37.667 22.7141 38.8208 25.76 38.763C28.806 38.8211 31.7504 37.6674 33.9461 35.5554C36.1417 33.4433 37.4089 30.5459 37.469 27.5C37.4086 24.4541 36.1414 21.5569 33.9458 19.4449C31.7502 17.333 28.8059 16.1791 25.76 16.237ZM25.76 32.005C24.5419 32.0275 23.3645 31.5658 22.4864 30.7212C21.6082 29.8766 21.101 28.7181 21.076 27.5C21.101 26.2818 21.6082 25.1234 22.4864 24.2788C23.3645 23.4342 24.5419 22.9725 25.76 22.995C26.9782 22.9725 28.1556 23.4342 29.0337 24.2788C29.9119 25.1234 30.4191 26.2818 30.444 27.5C30.4191 28.7181 29.9119 29.8766 29.0337 30.7212C28.1556 31.5658 26.9782 32.0275 25.76 32.005Z" fill="#030504"/>
</svg>
